<svg version="1.1" xmlns="http://www.w3.org/2000/svg" viewBox="0 0 436 380.9999999999999" width="436" height="380.9999999999999">
  <!-- svg-source:excalidraw -->
  
  <defs>
    <style>
      @font-face {
        font-family: "Virgil";
        src: url("https://excalidraw.com/Virgil.woff2");
      }
      @font-face {
        font-family: "Cascadia";
        src: url("https://excalidraw.com/Cascadia.woff2");
      }
    </style>
  </defs>
  <rect x="0" y="0" width="436" height="380.9999999999999" fill="#ffffff"></rect><g stroke-linecap="round" transform="translate(10 10) rotate(0 208 180.49999999999994)"><path d="M-0.26 -0.32 C146.98 0.38, 294.93 1.93, 415.83 -0.22 M0.22 0.01 C136.55 1.15, 273.34 1.27, 415.72 -0.18 M416.63 -1.25 C415.53 92.22, 416.2 183.63, 416.03 360.33 M415.56 -0.15 C414.93 136.13, 414.78 271.28, 415.71 360.93 M415.87 360.24 C296.71 361.67, 177.32 359.66, -0.41 361.53 M416.13 361.27 C290.69 361.73, 165.04 361.82, -0.45 361.23 M1.16 362.08 C-1.89 227.38, -0.09 92.09, -0.19 1 M0.58 360.42 C0.41 282.02, 0.15 202.99, -0.25 -0.51" stroke="#000000" stroke-width="1" fill="none"></path></g><g transform="translate(80 34) rotate(0 133 17.5)"><text x="0" y="25" font-family="Virgil, Segoe UI Emoji" font-size="28px" fill="#000000" text-anchor="start" style="white-space: pre;" direction="ltr">Application Context</text></g><g stroke-linecap="round" transform="translate(51 156) rotate(0 116.5 29.5)"><path d="M4.67 21.28 C4.67 21.28, 4.67 21.28, 4.67 21.28 M4.67 21.28 C4.67 21.28, 4.67 21.28, 4.67 21.28 M2.25 32.45 C6.25 26.32, 6.75 24.62, 11.85 16.22 M2.37 29.9 C4.74 26.68, 6.75 24.52, 13.33 17.39 M1.49 35.15 C6.51 30.76, 15.66 22.39, 23.06 11.43 M2.37 36.46 C10.27 27.73, 17.43 18.71, 22.94 11.96 M6.31 35.72 C12.07 27.82, 20.41 20.67, 28.37 9.88 M5.84 36.49 C13.39 29.76, 18.54 23.26, 29.58 10.35 M9.61 38.29 C20.46 27.31, 30.99 16.82, 37.57 7.33 M9.62 38.61 C17.02 32.63, 21.75 25.64, 37.13 9.17 M13.29 43.71 C18.8 34.68, 26.77 23.79, 42.22 6.4 M12.51 42.68 C23.28 30.54, 32.49 18.23, 43.27 7.81 M17.09 42.81 C26.76 34.27, 35.68 20.77, 49.04 4.86 M17.82 44.11 C26.19 33.88, 35.25 21.63, 48.66 6.21 M19.61 46.08 C34.03 29.3, 46.72 18.55, 53.42 4 M20.04 44.84 C30.62 34.47, 41.49 22.27, 56.16 6.49 M25.75 45.78 C38.47 31.51, 49.92 17.84, 60.26 5.75 M24 46.78 C33.23 38.33, 41.76 28.39, 61.37 5.46 M27.62 49.07 C39.53 36.95, 48.02 26.47, 68.91 1.82 M29.46 48.23 C41.62 33.51, 53.37 18.97, 67.24 2.97 M31.44 49.37 C41.17 38.66, 50.95 30.78, 72.04 5.08 M33.69 50.58 C46.87 32.63, 63.85 14.66, 72.61 4.68 M35.71 50 C50.17 39.41, 62.3 23.11, 79.72 2.37 M37.34 51.24 C49.81 36.2, 64.69 19.84, 78.04 4.17 M42.08 51.04 C51.55 41.28, 60.88 29.66, 81.83 3.72 M40.96 51.8 C53.72 38.66, 64.42 26.49, 83.84 5.45 M44.27 54.99 C63.15 32.1, 77.72 13.79, 89.45 5.65 M45.67 53.05 C60.05 37.83, 74.82 19.35, 89.17 3.58 M47.57 56.84 C61.47 37.81, 75.72 22.23, 94.47 2.34 M50.3 54.32 C65.14 37.67, 79.45 19.68, 93.36 3.18 M52.42 58.74 C70.55 35.15, 86 16.68, 100.45 4.5 M52.67 57.49 C70.63 36.73, 86.46 16.97, 98.43 4.55 M58.52 55.35 C68.64 43.85, 78.38 32.5, 105.49 2.21 M57.41 57.62 C73.48 39.69, 87.98 22.82, 105.64 3.91 M63.87 57.73 C78.82 37.22, 95.71 18.16, 111.1 2.59 M62.64 58.18 C76.85 41.94, 89.72 27.72, 110.1 2.28 M70.19 57.22 C79.73 45.89, 94.26 30.91, 119.07 2.38 M69.1 58.25 C86.17 37.92, 103.97 17.54, 117.27 1.48 M74.47 60.04 C91.16 38.32, 112.48 15.84, 121.77 0.63 M73.42 58.39 C91.76 37.59, 109.25 17.73, 122.97 2.05 M77.9 60.44 C91.66 42.46, 106.59 27.09, 129.5 -0.26 M78.7 59.14 C89.93 44.62, 103.83 29.5, 128.43 1.64 M82.69 57.8 C95.12 48.15, 104.83 32.87, 133.57 1.92 M83.02 59.44 C100.83 39.54, 119.06 20.06, 133.01 0.76 M88.99 57.78 C99.72 45.83, 108.19 33.06, 137.68 2.73 M88.04 59.06 C99.34 47.06, 108.73 35.77, 139.34 1.68 M91.71 61.43 C108.33 41.57, 125.98 21.38, 145.59 2.29 M93.57 59.02 C104.99 46.57, 115.44 34.12, 144.62 0.88 M97.46 58.34 C114.96 38.67, 129.94 21.82, 150.56 1.09 M98.09 60.09 C112.72 43.02, 128.83 25.2, 147.77 2.25 M100.07 61.22 C118.43 45.09, 132.92 26.06, 153.62 4.15 M102.04 62.66 C119.51 40.4, 138.07 19.92, 153.39 2.48 M107.37 60.28 C127.11 40.61, 146.35 18.82, 156.43 2.14 M108.3 62.44 C116.78 50.03, 128.4 38.24, 158.31 3.58 M112.25 59.68 C126.79 45.47, 138.67 29.94, 164.79 5.49 M112.85 60.2 C133.05 39.72, 152.67 15.82, 162.74 4.23 M116.73 62.31 C131.84 44.52, 145.99 29.07, 168.93 6.76 M118.6 59.88 C131.11 44.16, 145.93 29.03, 166.33 5.52 M122.21 61.97 C135.88 49.94, 145.63 36.41, 173.6 3.81 M123.31 62.11 C133.74 49.98, 144.44 38.71, 171.89 5.37 M128.98 61.47 C149.97 38.94, 166.45 18.09, 177.73 6.88 M128.78 61.56 C139.62 47.74, 151.04 34, 176.74 6.98 M133.17 62.27 C148.56 41.52, 166.29 26.47, 180.55 5.72 M135.5 59.95 C147.92 45.5, 160.89 29.83, 182.54 7.26 M142.22 58.6 C152.76 44.52, 166.73 26.44, 185.85 7.99 M139.77 59.45 C154.72 43.54, 170.18 25.89, 187.23 6.5 M146.45 60.08 C156.89 49.69, 166.26 38.94, 192.85 10.12 M145.03 60.62 C162.92 39.98, 180.48 19.44, 191.58 8.59 M150.57 61.86 C168.24 41.89, 187.41 19.94, 195.03 8.17 M150.99 59.87 C165.37 42.94, 179.46 28.28, 195.71 9.18 M159.29 57.47 C169.67 48.18, 178.45 33.47, 200.39 8.24 M156.95 59.61 C170.05 45.25, 180.9 32.35, 201.05 9.4 M162.15 59.97 C174.54 46.93, 180.66 35.76, 204.33 11.06 M162.33 58.73 C174.67 44.37, 188.88 29.73, 204.86 11.76 M169.72 59.31 C182.51 43.12, 194.1 25.93, 205.78 13.87 M168.53 57.25 C180.89 41.99, 195.59 26.42, 208.15 13.35 M175.82 58.46 C185.99 45.33, 194.29 35.74, 211.49 16.32 M174.87 57.79 C188.9 40.32, 202.84 23.98, 211.53 15.02 M179.72 57.04 C190.09 45.77, 200.24 36.81, 214.9 15.84 M180.47 56.48 C188.63 46.16, 196.46 36.78, 215.86 16.12 M188.39 55.43 C195.81 42.37, 210 30.39, 221.62 19.47 M186.16 56.4 C196.98 43.52, 206.24 32.82, 219.37 17.62 M194.64 53.9 C205.16 40.34, 214.73 27.96, 225.71 18.3 M194.31 54.05 C200.48 46.61, 207.23 37.97, 223.67 17.81 M200.05 52.51 C207.35 44.63, 215.98 34.81, 227.2 23.81 M201.52 52.5 C210.47 40.42, 221.92 27.71, 226.92 22.04 M210.5 49.21 C214.14 44.83, 218.39 37.48, 230.91 26.25 M207.74 48.83 C213.55 42.41, 218.77 35.79, 230.32 24.34 M218.37 43.44 C220.96 38.76, 228.97 34.58, 230.72 29.49 M216.18 45.11 C221.33 39.51, 224.97 35.12, 232.15 27.64" stroke="#82c91e" stroke-width="0.5" fill="none"></path><path d="M151.35 0.99 C166.39 1.75, 182.32 4.32, 194.22 7.13 C206.12 9.94, 216.24 14.12, 222.77 17.87 C229.31 21.61, 233.78 25.53, 233.44 29.6 C233.11 33.68, 227.67 38.48, 220.74 42.33 C213.82 46.19, 203.89 50.25, 191.88 52.74 C179.87 55.23, 164.17 56.2, 148.69 57.26 C133.21 58.32, 115.2 59.45, 99.01 59.1 C82.81 58.74, 64.93 57.55, 51.52 55.13 C38.11 52.7, 27 48.16, 18.54 44.56 C10.09 40.96, 3.11 37.37, 0.78 33.51 C-1.55 29.65, -0.24 25.44, 4.57 21.4 C9.37 17.35, 18.8 12.48, 29.61 9.24 C40.43 6, 54.97 3.38, 69.46 1.96 C83.95 0.53, 101.46 0.57, 116.55 0.68 C131.63 0.78, 151.73 2.05, 159.96 2.58 C168.18 3.11, 166.65 3.34, 165.88 3.86 M72.46 3.16 C86.11 1.37, 105.71 0.5, 121.92 0.3 C138.13 0.1, 155.66 0.43, 169.73 1.98 C183.8 3.54, 196.55 6.28, 206.34 9.63 C216.13 12.98, 224.13 18.13, 228.47 22.09 C232.8 26.05, 235.01 29.48, 232.35 33.39 C229.69 37.3, 221.59 42.04, 212.49 45.56 C203.39 49.07, 191.37 52.11, 177.75 54.47 C164.14 56.84, 147.1 59.42, 130.8 59.75 C114.5 60.08, 95.3 57.96, 79.94 56.45 C64.59 54.95, 50.32 53.09, 38.68 50.7 C27.04 48.31, 16.79 45.55, 10.11 42.11 C3.44 38.66, -1.85 34.26, -1.37 30.03 C-0.89 25.8, 5.58 20.49, 12.98 16.72 C20.38 12.94, 33.31 9.76, 43.02 7.38 C52.74 5.01, 66.28 3.17, 71.26 2.47 C76.25 1.78, 71.88 2.64, 72.93 3.21" stroke="#000000" stroke-width="1" fill="none"></path></g><g transform="translate(66.5 168) rotate(0 101 17.5)"><text x="101" y="25" font-family="Virgil, Segoe UI Emoji" font-size="28px" fill="#000000" text-anchor="middle" style="white-space: pre;" direction="ltr">ProductService</text></g><g stroke-linecap="round" transform="translate(164.5 250.5) rotate(0 116.5 29.5)"><path d="M8.45 17.95 C8.45 17.95, 8.45 17.95, 8.45 17.95 M8.45 17.95 C8.45 17.95, 8.45 17.95, 8.45 17.95 M-0.05 30.34 C5.71 25.69, 9.17 23.46, 14.96 16.03 M1.26 32.4 C5.2 28.27, 8.77 23.56, 16.32 15.14 M5.32 35.74 C11.2 27.1, 16.92 23.16, 23.19 12.98 M4.54 34.65 C8.17 30.2, 11.77 25.95, 23.56 13.51 M6.8 37.96 C10.9 34.21, 17.7 26.55, 31.78 10.3 M7.63 38.55 C11.92 32.08, 16.86 27.63, 29.68 11.35 M10.19 42.21 C18.89 27.9, 29.18 16.48, 37.89 10.03 M10.72 40.92 C19.42 29.17, 29.57 16.83, 36.05 9.47 M11.53 43.98 C24.54 29.33, 34.65 18.19, 43.33 11.08 M12.48 42.79 C21.9 31.94, 31.53 22.55, 42.16 9.25 M16.53 47.17 C24.6 37.05, 33.77 25.75, 47.56 7.39 M15.27 44.87 C24.26 35.97, 32.13 27.1, 48.27 8.21 M22.14 48.43 C33.79 34.66, 45.91 17.5, 56.47 8.55 M20.29 47.14 C31.61 33.53, 41.79 21.98, 55.95 7.86 M24.82 47.57 C33.02 39.83, 41.61 25.52, 62.63 5.65 M23.64 48.68 C36.46 35.31, 47.51 20.64, 61.97 4.95 M27.98 49.15 C43.1 32.6, 57.22 16.8, 66.15 4.45 M29.36 50.45 C42.23 33.18, 56.03 18.38, 66.84 3.84 M33.61 49.66 C42.69 38.16, 54.11 23.11, 76.21 1.7 M32.82 51.87 C42.53 38.69, 53.35 27.5, 74.05 2.25 M37.1 52.32 C48.32 42.47, 56.13 29.84, 80.01 2.85 M37.17 52.92 C46.7 41.05, 57.94 29.9, 78.73 2.19 M42.13 54.01 C52.66 38.85, 65.82 26.97, 84.16 1.3 M39.94 54.33 C51.07 42.85, 59.36 31.84, 84.65 2.56 M46.2 54.13 C57.77 40.08, 68.85 29.01, 90.37 2.14 M46.3 53.82 C60.11 36.67, 76.44 17.69, 89.7 2.23 M49.57 55.74 C62.15 41.03, 74.42 30.13, 94.92 3.7 M49.6 54.5 C64.28 39.76, 79.65 20.88, 96.95 2.86 M56.04 54.14 C70.91 37.98, 88.92 17.37, 100.23 4.74 M55.89 54.8 C64.93 45.55, 74.81 33.31, 101.96 3.4 M61.22 55.29 C75.46 37.37, 94.31 18.65, 105.02 3.5 M59.9 56.19 C71.92 41.51, 85.56 26.9, 106.66 2.5 M64.05 57.93 C80.95 38.23, 99.88 16.67, 113.25 3.39 M64.19 56.58 C77.4 42.47, 87.93 29.63, 113.88 1.46 M71.02 55.42 C80.44 42.51, 95.1 28.29, 118.31 2.85 M69.1 57.55 C88.82 36.65, 105.87 15.83, 117.32 1.43 M73.02 56.91 C84.56 45.01, 94.92 35.38, 121.19 2.44 M75.29 56.74 C86.88 42.25, 99.96 28, 123.36 1.8 M78.26 56.43 C94.23 42.1, 106.2 26.43, 126.72 3.24 M80.29 58.33 C91.91 44.41, 101.55 31.8, 127 1.94 M85.09 58.05 C99.25 39.93, 116.03 20.11, 133.76 2.49 M85.09 57.44 C101.93 38.15, 117.81 20.25, 133.75 2.11 M90.93 56.96 C107.53 37.88, 127 15.32, 136.78 1.93 M90.69 58.6 C101.9 44.55, 113.22 31.38, 138.85 3.15 M93.09 60.64 C110.49 42.32, 129.11 21.01, 144.04 3.98 M94.66 58.18 C111.03 38.46, 128.34 19.05, 143.2 1.94 M102.35 57.2 C113.92 42.35, 124.32 28.29, 150.45 4.28 M100.36 58.05 C111.29 44.02, 124.19 31.7, 147.89 3.3 M105.19 59.52 C117.32 44.53, 126.65 29.34, 151.82 3.91 M104.88 59.06 C118.38 42.56, 132.69 28.86, 154.09 3.45 M108.58 57.89 C125.52 40.42, 143.66 22.98, 158.35 5.7 M111.53 58.95 C124.62 42.74, 139.04 27.77, 158.3 3.7 M114.28 60.1 C131.35 40.7, 147.14 22.99, 162.89 4.11 M115.8 59.79 C126.45 46.39, 136.94 34.81, 162.24 5.63 M120.31 59.84 C136.87 41.13, 154.51 19.25, 168.44 3.39 M120.56 59.67 C135.06 43.13, 149.16 24.28, 168.07 4.53 M126.56 61.09 C135.55 45.54, 145.95 35.2, 172.41 7.94 M125.28 58.39 C136.87 47.58, 147.37 35.33, 172.3 7.07 M132.94 58.19 C145.45 40.71, 161.44 23.13, 176.73 5.4 M131.97 58.92 C141.7 45.81, 155.03 32.58, 177.66 7.78 M136.29 60.53 C148.35 47.37, 157.53 36.74, 179.53 9.84 M135.68 59.27 C150.83 44.28, 164.06 27.49, 182.39 7.44 M139.91 61.38 C151.63 45.38, 168 33.61, 185.21 8.82 M139.8 60.75 C152.77 45.94, 166.65 32.47, 186.05 7.55 M147.06 61.76 C157.87 45.67, 169.44 32.92, 192.77 9.81 M147.17 59.12 C162.85 41.25, 180.19 21.76, 191.48 8.01 M153.27 61.39 C162.72 48.75, 169.02 37.6, 194.6 11.05 M152.16 58.8 C160.7 49.82, 170.85 39.09, 195.36 9.3 M160.46 57.19 C174.57 40.55, 191.04 20.78, 200.02 7.66 M158.4 58.78 C170.15 44.79, 181.73 32.42, 201.37 9.9 M163.2 60.04 C181.94 39.16, 196.56 21.05, 204.93 9.06 M164.76 58.57 C177.09 45.44, 187.83 29.8, 205.54 11.05 M170.84 57.79 C184.89 40.92, 197.19 27.16, 208.55 11.04 M171.21 56.65 C185.11 40.74, 199.98 23.68, 208.69 12.09 M175.82 57.71 C184.8 47.66, 193.89 35.66, 215.01 12.66 M176.74 56.15 C191.71 39.18, 206.28 22.89, 213.73 14.71 M186.48 55.07 C192.89 43.09, 205.21 30.56, 218.24 17.37 M183.89 52.74 C192.27 45.23, 200.02 35.72, 218.18 15.37 M190.64 52.33 C201.68 39.29, 208.58 30.52, 220.88 16.41 M192.05 51.19 C199.08 43.71, 204.83 33.98, 220.81 17.98 M197.77 50.16 C207.08 36.95, 217.45 26.75, 223.06 17.4 M197.28 49.67 C206.64 40.91, 212.69 32.51, 224.11 19.88 M203.21 49.42 C215.77 38.33, 222.59 28.66, 228.68 20.49 M204.21 49.01 C214.06 38.03, 222.63 26.81, 228.23 21.2 M213.73 47.95 C219.31 37.98, 224.11 30.61, 228.98 24.97 M211.32 46.87 C218.03 39.78, 224.44 32.47, 230.24 24.88 M218.41 43.53 C221.01 41.06, 223.21 38.42, 233.27 27.63 M217.49 45.95 C221.2 41.48, 224.02 39.25, 232.6 28.3" stroke="#15aabf" stroke-width="0.5" fill="none"></path><path d="M111.77 0.76 C126.97 0.16, 145.34 1.59, 160.17 2.86 C175 4.13, 189.68 5.62, 200.77 8.37 C211.86 11.12, 221.51 15.3, 226.73 19.33 C231.96 23.36, 233.74 28.34, 232.13 32.55 C230.51 36.77, 225.05 41.21, 217.06 44.62 C209.07 48.03, 197.28 50.58, 184.2 53 C171.12 55.41, 154.48 58.39, 138.6 59.11 C122.72 59.83, 104.64 58.21, 88.93 57.32 C73.23 56.44, 56.98 56.15, 44.36 53.78 C31.74 51.41, 20.63 46.92, 13.23 43.11 C5.83 39.29, 0.78 35.06, -0.04 30.9 C-0.86 26.73, 2.42 21.7, 8.3 18.12 C14.19 14.53, 23.71 12.2, 35.25 9.39 C46.8 6.59, 63.64 2.76, 77.59 1.3 C91.53 -0.17, 110.71 0.78, 118.93 0.61 C127.16 0.43, 126.98 -0.14, 126.95 0.24 M146.18 -0.1 C161.03 0.82, 176.38 4.67, 188.76 7.5 C201.14 10.33, 213.19 13.38, 220.47 16.87 C227.75 20.36, 232.04 24.61, 232.44 28.44 C232.84 32.27, 229.02 36.28, 222.86 39.84 C216.7 43.4, 206.91 46.61, 195.47 49.79 C184.03 52.98, 169.56 57.47, 154.24 58.96 C138.91 60.45, 119.78 59.24, 103.53 58.75 C87.27 58.26, 70.52 58.04, 56.72 55.99 C42.91 53.94, 29.92 49.76, 20.68 46.46 C11.43 43.15, 4.18 39.97, 1.26 36.18 C-1.66 32.38, -0.68 27.69, 3.17 23.66 C7.02 19.63, 14.37 15.46, 24.37 12 C34.38 8.53, 48.75 4.92, 63.19 2.87 C77.63 0.83, 97.1 0.08, 111.01 -0.26 C124.92 -0.6, 141.12 0.66, 146.65 0.82 C152.18 0.97, 144.99 0.11, 144.16 0.68" stroke="#000000" stroke-width="1" fill="none"></path></g><g transform="translate(179.5 262.5) rotate(0 101.5 17.5)"><text x="101.5" y="25" font-family="Virgil, Segoe UI Emoji" font-size="28px" fill="#000000" text-anchor="middle" style="white-space: pre;" direction="ltr">ProductVerifier</text></g></svg>