<svg version="1.1" xmlns="http://www.w3.org/2000/svg" viewBox="0 0 1002.5 600" width="1002.5" height="600">
  <!-- svg-source:excalidraw -->
  
  <defs>
    <style>
      @font-face {
        font-family: "Virgil";
        src: url("https://excalidraw.com/Virgil.woff2");
      }
      @font-face {
        font-family: "Cascadia";
        src: url("https://excalidraw.com/Cascadia.woff2");
      }
    </style>
  </defs>
  <rect x="0" y="0" width="1002.5" height="600" fill="#ffffff"></rect><g stroke-linecap="round" transform="translate(76.5 53.333343505859375) rotate(0 91.5 53)"><path d="M0 0 C0 0, 0 0, 0 0 M0 0 C0 0, 0 0, 0 0 M-0.88 6.03 C1.66 4.31, 2.81 2.85, 5.22 -0.09 M-0.04 6.49 C1.45 3.87, 3.28 1.71, 4.65 0.76 M0.53 13.11 C4.33 9.58, 6.55 4.25, 10.19 1.42 M0.84 11.28 C3.46 8.2, 7.7 3.32, 10.95 0.48 M0.74 19.73 C5.48 10.2, 13.37 3.41, 13.9 0.82 M0.33 18.12 C5.19 13.33, 9.32 7.44, 15.34 0.19 M0.12 25.25 C9.99 13.13, 15.69 6.73, 20.44 1.01 M1.25 23.56 C8.05 15.99, 14.11 7.34, 21.99 -0.3 M0.07 29.58 C6.64 23.28, 13.34 14.38, 24.62 0.03 M0.54 31.31 C9.02 19.21, 17.07 10.49, 26.72 0.71 M-0.98 35.12 C5.56 30.4, 11.61 20.51, 31.03 -0.3 M-0.11 36.44 C8.65 27.69, 16.83 16.94, 31.9 -0.81 M-0.56 42.41 C16.56 26.76, 27 8.71, 37.56 1.14 M0.5 41.92 C9.15 32.38, 16.83 24.26, 37.84 -0.07 M-1.27 49.52 C10.68 38.02, 17.88 28.65, 41.51 -0.19 M-0.31 49.34 C12.13 34.36, 25.8 18.99, 42.64 -1 M-1.25 55.91 C12.6 41.71, 25.93 24.34, 47.24 0.74 M0 54.01 C17.84 35.1, 36.18 15.26, 47.43 0.19 M1.36 61.56 C10.67 45.1, 22.81 34.04, 52.26 1.57 M0.58 61.5 C21.2 37.36, 41.04 13.19, 52.26 -0.59 M-2.04 66.84 C14.74 54.11, 27.75 36.3, 58.87 -0.26 M0.29 66.73 C11.06 53.72, 22.71 39.64, 57.37 -0.81 M0.35 71.88 C25.88 47.69, 47.73 19.26, 64.3 -0.45 M0.32 72.73 C13.2 58.84, 26.69 43.43, 62.98 -0.96 M-0.33 79.99 C24.2 50.48, 44.34 23.87, 68.32 -0.64 M0.77 79.31 C26.77 48.17, 55.33 16.74, 68.67 -0.03 M-0.15 85.46 C25.49 57.02, 47.93 28.7, 75.37 -1.37 M-0.18 84.21 C29.19 53.17, 57.44 20.64, 75.14 -1.15 M1.23 92.75 C30.97 54.73, 63.12 19.85, 78.19 1.13 M-0.98 91.6 C21.94 68.07, 41.49 43.96, 79.53 0.91 M-1.97 96.33 C19.64 75.75, 40.44 53.98, 83.9 -2 M0.47 97.2 C21.63 72.79, 41.14 48.23, 85.26 0.14 M1.28 104.06 C27.29 75.44, 52.94 42.35, 89.72 -1.1 M-0.58 103.01 C31.12 69.96, 60.8 34.84, 89.3 -0.26 M3.68 106.32 C38.37 63.88, 76.52 22.06, 97 -0.85 M2.79 107.76 C28.6 77.44, 55.78 44.46, 96.02 0.55 M5.77 107.62 C28.46 80.33, 49.65 56.79, 98.89 -1.17 M7.08 107.79 C42.45 67, 76.74 25.72, 100.47 -0.48 M10.91 106.53 C47.52 66.51, 82.87 27.94, 106.45 -2.09 M13.04 108.31 C45.68 71.13, 76.35 34.12, 106.24 0.09 M16.1 106.01 C49.89 68.82, 86.8 30.75, 112.32 -0.62 M18.09 107.05 C40.06 84.05, 60.32 59.07, 110.71 0.68 M22.09 109.01 C54.16 72.88, 88.23 33.13, 116.09 1.14 M22.24 107.19 C52.79 74.47, 82.5 40.21, 116.26 -0.16 M29.07 109.65 C58.24 71.77, 88.6 38.85, 123.34 -0.66 M27.37 107.8 C56.89 75.36, 85.31 43.62, 122.82 0.96 M34.78 108.28 C61.43 80.8, 84.87 51.01, 128.41 -0.22 M33.06 108.28 C63.94 72.13, 96.13 36, 126.52 0.97 M38.11 106.71 C66.76 77.12, 91.08 48.45, 131.96 1.79 M37.92 108.83 C65.38 74.85, 92.85 44.87, 132.77 -0.53 M45.25 107.19 C78 71.01, 111.95 33.65, 136.59 1.34 M45.37 106.82 C82.3 64.23, 118.5 21.06, 137.66 1.25 M49.32 107.69 C80.2 74.3, 107.86 39.51, 144.9 -1.84 M48.94 107.3 C78.45 75.27, 106.33 43.31, 143.7 0.65 M56.46 108.9 C73.12 87.58, 92.99 64.76, 147.19 -1.12 M54.14 107.37 C80.23 79, 104.52 50.26, 149.15 0.06 M61.5 109.42 C77.87 83.1, 98.42 63.06, 155.54 0.15 M59.74 108.69 C85.41 77.72, 110.98 48.6, 153.87 0.3 M66.04 108.87 C88.02 80.67, 113.52 56.75, 159.44 -0.22 M65.55 107.84 C86.15 83.84, 107.95 59.36, 158.59 1.11 M70.13 107.01 C98.82 74.46, 124.39 43.6, 163.95 -0.19 M69.81 106.84 C89 85.28, 107.69 63.72, 164.74 -0.46 M74.33 106.88 C103.98 72, 134.64 38.24, 169.27 1.72 M76.91 107.5 C103.56 76.21, 131.88 43.67, 169.75 0.45 M79.38 105.91 C116.09 67.27, 149.91 27.88, 176.9 1.47 M80.78 107.93 C107.88 75.69, 136.25 43.98, 174.89 -1.15 M88.33 107.04 C114.19 74.63, 140.82 41.47, 181.27 0.7 M86.68 106.94 C109.38 80.35, 133.06 52.75, 180.55 0.47 M90.12 105.87 C126.29 66.78, 163.07 27.09, 182.53 -0.7 M92.47 108.49 C129.76 64.99, 165.69 22.08, 184.76 1.57 M97.75 105.75 C120.47 84.01, 141.68 57.84, 182.19 6.59 M98.49 108.11 C129.88 71.36, 160.02 35.47, 184.5 7.47 M103.88 108.95 C135.62 69.35, 167.71 32.14, 185.11 11.33 M102.82 107.37 C135.03 70.27, 167.3 32.05, 185.38 13.9 M106.98 107.72 C128.62 85.62, 144.46 66.51, 184.64 20.99 M109.12 106.29 C128.28 83.11, 146.3 61.97, 184.47 19.51 M114.91 107.52 C142.76 75.52, 169.45 44.89, 184.65 24.27 M113.93 107.8 C128.09 90.46, 143.57 72.47, 184.01 25.79 M118.44 106.76 C132.99 90.2, 143.33 75.93, 183.21 30.31 M117.85 108.88 C136.92 84.99, 159.18 61.71, 184.78 31.5 M122.12 108.27 C138.58 93.14, 152.61 77.17, 186.01 36.48 M124.09 107.32 C148.89 80.1, 172.74 51.45, 183.21 37.85 M127.2 106.68 C143.88 89.76, 156.71 73.34, 185.28 43.81 M129.1 108.34 C151.4 81.56, 173.93 56.98, 183.99 43.2 M133.11 108.21 C150.37 87.32, 167.12 72.19, 182.7 48.35 M133.7 107.83 C150.2 88.68, 167.59 70.52, 184.66 49.76 M141.07 109.9 C155.05 90.25, 167.58 76.78, 182.88 57.04 M138.45 108.75 C156.11 88.56, 171.46 70.06, 184.79 56.74 M144.19 106.65 C151.95 98.96, 162.9 87.36, 184.96 62.85 M145.36 107.57 C154.35 96.2, 163.75 85.66, 185.24 62.82 M151.17 106.4 C160.27 94.33, 175.75 79.75, 184.09 68.64 M149.31 108.76 C162.24 92.97, 174.93 80.32, 183.38 69.33 M156.35 109.22 C165.96 95.98, 171.61 87.12, 186.36 74.53 M155.78 107.14 C166.91 94.62, 176.97 83.18, 183.64 74.91 M159.35 106.46 C168.62 100.93, 173.47 90.39, 183.65 81.29 M160.24 108.39 C167.04 100.17, 173.99 92.92, 184.11 80.26 M167.24 107.85 C171.82 99.35, 180.9 90.48, 183.16 86.21 M165.87 107.45 C169.72 102.17, 175.47 97.19, 183.7 87.25 M170.11 108.66 C173.25 105.45, 175.96 102.31, 183.01 94.24 M170.97 106.99 C176.67 102.57, 182.21 95.89, 183.48 93.43 M175.99 108.17 C178.04 105.59, 180.31 104.32, 184.98 98.41 M176.79 107.62 C179.12 104.83, 181.97 101.35, 183.94 99.15" stroke="#15aabf" stroke-width="0.5" fill="none"></path><path d="M-1.57 1.75 C38.02 -1.67, 77.73 -1.63, 182.2 0.14 M-0.07 0.49 C38.11 2.46, 75.25 2.07, 183.51 -0.48 M181.52 -0.46 C184.5 39.2, 184.45 73.94, 181.54 106.9 M182.51 -0.62 C183.24 22.42, 182.68 46.72, 183.1 105.01 M182.15 104.89 C111.62 103.43, 40.32 104.24, 1.41 107.5 M182.9 105.33 C139.76 105.77, 98.9 106.34, -0.21 105.59 M-1.71 105.42 C1.25 64.77, 1.33 22.66, 0.16 -1.11 M-0.67 105.15 C-1.21 68.17, -1.28 29.68, 0.37 0.15" stroke="#000000" stroke-width="1" fill="none"></path></g><g transform="translate(98.5 52.833343505859375) rotate(0 71 52.5)"><text x="71" y="25" font-family="Virgil, Segoe UI Emoji" font-size="28px" fill="#000000" text-anchor="middle" style="white-space: pre;" direction="ltr">Bean</text><text x="71" y="60" font-family="Virgil, Segoe UI Emoji" font-size="28px" fill="#000000" text-anchor="middle" style="white-space: pre;" direction="ltr">Definitions</text><text x="71" y="95" font-family="Virgil, Segoe UI Emoji" font-size="28px" fill="#000000" text-anchor="middle" style="white-space: pre;" direction="ltr">Loaded</text></g><g stroke-linecap="round" transform="translate(329 53.333343505859375) rotate(0 91.5 53)"><path d="M0 0 C0 0, 0 0, 0 0 M0 0 C0 0, 0 0, 0 0 M0.52 6.04 C1.65 5.78, 1.68 3.96, 5.44 0.79 M-0.46 6.04 C1.33 4.08, 3.23 2.24, 4.63 0.26 M-0.74 12.62 C3.8 5.61, 8.75 4.04, 11.5 -1.04 M-0.06 11.42 C2.24 9.28, 5.8 4.81, 10.71 -0.48 M0.74 18.96 C5.5 9.69, 9.78 2.94, 15.98 -0.21 M0.28 17.64 C2.27 15.21, 6.89 11.69, 15.51 0.62 M-0.86 23.64 C7.37 17.32, 15.79 6.44, 23.04 -0.24 M0.21 23.98 C5.6 17.87, 12.24 11, 21.05 0.14 M0.73 31.44 C8.19 21.45, 17.3 9.17, 25.33 -1.36 M0.43 31.21 C7.21 21.83, 15.73 10.81, 26.85 0.95 M-0.14 35.67 C8.96 26.86, 14.95 19.16, 29.89 0.21 M-0.31 37.01 C13.13 21.49, 24.21 7.79, 31.03 -0.86 M1.89 41.38 C7.96 30.21, 19.22 20.37, 38.31 -1.02 M-0.8 42.74 C14.34 27.18, 28.07 11.96, 37.45 0.55 M-1.63 48.61 C15.22 29.58, 32.01 9.11, 41.06 -1.07 M-0.9 48.19 C15.13 31.4, 31.05 12.88, 43.43 -0.79 M0.75 55.89 C12.02 40.4, 25.8 24.65, 49.37 0.52 M-0.52 54.91 C14.21 38.73, 27.19 24.97, 46.97 0.05 M0.22 59.19 C15.68 43.84, 35.27 22.1, 53.63 -0.55 M-0.41 60.78 C20.09 38.63, 41.89 14.02, 52.36 -0.69 M1.49 67.51 C17 46.3, 35.78 25.36, 59.25 1.64 M-1.15 67.3 C23.32 41.04, 46.21 13.74, 57.45 -0.77 M1.9 74.03 C12.79 55.78, 25.22 40.7, 65.02 -1.98 M-0.68 72.42 C23.75 47.31, 46.4 20.23, 63.27 0.53 M-1.4 79.22 C19.25 56.98, 37.08 33.07, 67.01 -0.56 M0.18 79.38 C17.18 59, 35.96 37.79, 69.25 1.02 M2.23 86.46 C19.68 62.76, 39.76 39.2, 72.94 -0.45 M0.77 85.94 C25.96 56.34, 48.5 28.41, 74.93 0.15 M0.87 92.94 C29.26 56.78, 61.24 20, 78.03 1.67 M-0.26 91.05 C20.29 68.23, 39.72 45.03, 79.09 -0.46 M1.68 97.25 C33.7 61.4, 63.65 26.87, 83.43 1.65 M0.12 98.06 C21.02 74.51, 42.05 50.67, 85.48 -0.42 M2.1 102.53 C30.02 70.41, 58.01 35.08, 92.01 -1.23 M-0.23 103.61 C31.06 69.83, 60.35 36.01, 90.01 0.01 M2.96 109.34 C33.51 68.62, 68.94 29.06, 94.82 -1.39 M1.83 108.13 C37.8 66.07, 71.25 26.77, 96.4 0.42 M6.93 107 C27 81.7, 50.65 55, 98.93 -0.09 M6.44 108.96 C36.92 73.34, 67.4 39.26, 101.41 0.86 M13.74 109.31 C33.16 85.64, 53.16 64.15, 105.79 1.43 M13.33 107.64 C40.08 76.31, 66.6 45.42, 106.51 0.39 M19.16 108.58 C42.3 76.9, 67.75 48.49, 111.12 0.89 M18.08 107.74 C38.1 84.88, 58.34 61.78, 111.04 -0.36 M21.53 107.05 C61.15 62.88, 99.7 23.64, 114.64 -1.48 M23.95 107.84 C50.19 76.46, 78.93 45.13, 115.31 0.13 M29.57 107.74 C48.95 86.31, 68.2 62.24, 123.2 0.24 M29.03 108.23 C51.7 81.17, 76.42 52.96, 120.98 -0.93 M32.74 109.34 C70.8 66.72, 104.38 26.84, 125.97 0.74 M33.91 107.33 C52.07 85.68, 72.82 63.24, 127.62 0.19 M37.18 109.09 C66.93 76.27, 95.27 47.61, 132.11 -0.85 M38.92 108.36 C65.24 77.42, 92.89 44.7, 131.67 -0.97 M44.03 105.62 C71.63 75.73, 101.34 40.8, 138.71 1.89 M43.77 107.85 C77.07 70.42, 108.76 34.74, 137.65 -0.47 M49.34 105.9 C82.67 67.66, 118.38 23.92, 145.1 1.52 M48.74 108.21 C84.56 69.39, 118.6 29.15, 143.86 0.55 M54.41 108.03 C81.19 77.55, 112.79 42.58, 148.77 -0.31 M54.41 108.3 C89.04 68.43, 121.17 30.03, 147.58 0.5 M61.71 108.18 C95.54 68.68, 129.12 32.12, 155.73 -2.07 M60.8 108.01 C95.88 68.96, 130.44 27.49, 154.69 -0.18 M65.2 107.41 C101.21 63.5, 136.99 21.94, 160.38 0.58 M65.08 106.77 C85.25 85.35, 104.34 64.59, 158.95 -0.38 M70.26 106.59 C105.48 68.18, 143.62 26.53, 163.88 1.63 M70.76 108.16 C89.16 84.37, 107.54 62.58, 163.61 0.18 M76.02 109.25 C106.69 71.35, 138.7 33.53, 170.06 -0.35 M75.37 106.45 C108.94 68.01, 143.51 30.82, 168.65 -0.43 M79.27 108.49 C118.25 67.92, 154.32 26.23, 175.74 0.59 M81.64 107.19 C114.27 69, 147.66 30.98, 174.42 0.14 M88.81 105.78 C112.19 77.52, 139.44 44.85, 178.66 0.71 M87.21 107.73 C106.51 84.88, 127.07 61.98, 180.89 1.16 M93.34 105.92 C129.57 67.74, 164.33 27.26, 182.5 2.94 M91.78 107.83 C125.88 69.32, 157.6 32.1, 183.97 0.85 M95.82 107.86 C118.35 81.79, 137.1 57.57, 184.78 7.78 M96.86 108.15 C122.22 81.32, 144.47 53.67, 184.7 6.94 M101.37 107.62 C120.21 87.69, 139.72 66.36, 183.09 15.08 M102.88 106.91 C132.42 74.26, 160.4 40.92, 184.86 14.19 M107.61 109.1 C138.44 75.61, 168.4 41.02, 184.5 19.02 M108.95 106.38 C135.85 76.76, 162.93 44.75, 183.61 19.02 M112.58 107.01 C137.36 80.17, 162.15 54.6, 183.83 26.44 M113.98 107.47 C132.49 85.19, 152.28 61.41, 185.13 25.56 M116.41 106.49 C133.92 88.2, 148.77 71.51, 183.55 31.75 M117.78 107.03 C132.68 91.34, 144.37 77.52, 183.81 32.18 M124.51 106.2 C140.63 91.48, 153.33 73.64, 183.5 36.5 M123.46 106.67 C143.91 83.75, 163.27 61.43, 183.28 38.84 M130.71 109.49 C140.6 93.51, 156.5 78.95, 184.03 44.53 M127.96 107.59 C143.49 89.58, 158.53 72.98, 184.9 43.87 M134.99 107.98 C149.01 88.15, 163.94 70.27, 185.17 49.13 M135.04 107.84 C148.19 91.7, 162.19 75.78, 184.17 50.81 M139.36 108.49 C155.7 87.4, 170.41 69.96, 184.34 56.59 M138.49 106.96 C153.36 91.5, 167.13 73.29, 183.83 55.7 M146.2 107.84 C157.8 94.59, 165.81 81.89, 184.23 61.16 M145.8 108.47 C157.78 93.01, 170.68 77.88, 184.99 61.66 M150.17 107.81 C161.51 95.28, 171.53 80.81, 182.54 68.6 M149.36 108.47 C158.4 98.08, 167.31 89.25, 184.22 68.18 M156.59 105.95 C167.23 97.75, 176.05 84.72, 183.08 75.35 M156.15 108.2 C164.49 97.57, 173.33 88.34, 183.97 73.97 M161.28 106.48 C168.28 96.29, 180.52 86.03, 182.98 79.66 M160.91 108.59 C166.72 102.05, 172.2 95.41, 185.04 79.74 M164.95 107.16 C171.96 100.74, 180.9 90.79, 186.39 85.16 M165.84 106.82 C170.92 102.31, 174.15 98.47, 185.64 85.51 M173.11 106.19 C175.17 102.25, 179.61 98.72, 184.34 91.82 M171.81 106.92 C173.44 104.76, 178.12 100.71, 184.59 93.2 M177.72 108.31 C178.33 105.24, 179.4 104.22, 184.34 99.32 M176.41 107.9 C179.5 104.76, 182.03 101.44, 184.21 99.56" stroke="#15aabf" stroke-width="0.5" fill="none"></path><path d="M-1.46 -1.63 C59.77 -0.1, 119.63 -0.51, 184.06 1.66 M0.67 0.47 C55.26 0.85, 110.38 1.08, 182.64 -0.88 M182.67 -0.86 C183.57 25.98, 185.63 51.61, 183.29 105.12 M182.5 0.01 C182.72 39.89, 182.56 78.57, 182.65 105.95 M181.83 106.68 C111.14 102.97, 38.97 103.27, 0.73 104.8 M183.72 106.97 C109.92 105.67, 37.77 105.68, -0.57 106.3 M0.09 104.99 C0.43 63.92, -1.19 22.83, -0.38 0.84 M-0.53 106.12 C-1.12 82.9, -0.18 61.46, -0.76 0.67" stroke="#000000" stroke-width="1" fill="none"></path></g><g transform="translate(336 57.833343505859375) rotate(0 85.48571428571432 48)"><text x="85.48571428571434" y="22.000000000000007" font-family="Virgil, Segoe UI Emoji" font-size="25.60000000000002px" fill="#000000" text-anchor="middle" style="white-space: pre;" direction="ltr">Post</text><text x="85.48571428571434" y="54.000000000000014" font-family="Virgil, Segoe UI Emoji" font-size="25.60000000000002px" fill="#000000" text-anchor="middle" style="white-space: pre;" direction="ltr">Process Bean</text><text x="85.48571428571434" y="86.00000000000003" font-family="Virgil, Segoe UI Emoji" font-size="25.60000000000002px" fill="#000000" text-anchor="middle" style="white-space: pre;" direction="ltr">Definitions</text></g><g stroke-linecap="round" transform="translate(581 51.333343505859375) rotate(0 91.5 53)"><path d="M0 0 C0 0, 0 0, 0 0 M0 0 C0 0, 0 0, 0 0 M-0.03 6.94 C1 3.43, 3.04 1.86, 4.67 1.12 M-0.3 6.25 C1.32 4.95, 2.83 2.74, 4.91 0.5 M0.47 12.96 C4.63 6.31, 8.96 3.37, 9.73 1.24 M-0.53 12.17 C2.99 9.51, 5.29 7.11, 9.9 0.73 M1.18 17.42 C2.56 13.92, 7.4 8.72, 16.63 -0.51 M0.03 19.41 C4.22 14.1, 7.62 9.68, 16.41 -0.36 M-1.24 23.38 C5.46 19.56, 10.78 12.97, 19.53 -1.12 M-0.37 24.76 C5.67 16.02, 11.47 10.14, 21.67 -0.19 M0.58 32.44 C11.35 21.13, 17.52 8.08, 25.07 0.87 M-0.46 31.18 C6.46 24.49, 11.42 15.98, 25.9 1.25 M-1.55 36.03 C8.11 26.34, 18.05 17.16, 31.35 -0.24 M-0.11 36.71 C12.04 23.02, 22.07 10.74, 32.75 -0.76 M-0.22 42.71 C10.97 27.49, 25.42 11.64, 35.66 1.89 M-0.05 43.36 C14.63 24.98, 29.13 8.72, 36.35 1.04 M-1.17 49.36 C15.98 30.57, 34.75 11.5, 40.77 0.53 M0.6 49.9 C8.69 38.72, 16.63 27.93, 42.96 0.52 M-1.65 52.78 C15.15 39.02, 31.04 22.48, 46.87 -1.28 M-0.62 55.15 C10.75 42.16, 20.36 29.99, 48.17 0.65 M1.48 60.56 C20.32 41.85, 35.67 18.81, 53.91 0.2 M-0.35 60.6 C14.97 44.87, 28.94 28.94, 52.61 0.12 M1.49 66.69 C17 45.34, 37.46 27.36, 57.49 0.22 M-0.36 67.65 C16.19 49.18, 33.53 30.69, 59.12 -0.13 M0.92 74.73 C15.54 57.45, 27.88 43.38, 63.22 0.48 M0.92 72.48 C22.01 49.22, 43.21 23.53, 64.41 -0.34 M-1.28 80.88 C23.24 51.77, 48.77 25.62, 70.62 -0.06 M0.84 78.85 C18.5 56.41, 40.01 33.54, 68.29 0.66 M-0.01 85.66 C21.27 63.81, 41.29 38.16, 75.45 1.75 M-0.38 85.37 C19.52 61.03, 38.81 39.25, 75.36 -0.06 M-0.13 92.74 C26.94 60.54, 52.59 33.13, 77.65 0.1 M-0.52 92.15 C21.26 67.54, 43.11 42.77, 80.14 -0.88 M1.21 96.59 C21.7 73.82, 40.66 49.56, 83.65 -0.9 M-0.32 98.01 C25.5 68.85, 50.9 41.21, 84.83 -1.12 M1.77 101.6 C29.79 65.56, 64.04 33.2, 90.31 -0.36 M1.04 103.38 C31.27 67.17, 63.37 31.85, 90.45 -0.47 M3.32 106.93 C27.4 79.5, 55.75 48.23, 95.21 -1.72 M2.29 106.78 C31.36 74.61, 59.87 42.15, 96.54 -0.42 M6.09 109.92 C40.67 67.24, 76.98 25.05, 100.62 -1.85 M5.92 107.95 C41.47 67.78, 77.14 28.23, 100.36 0.31 M12 105.73 C47.12 66.45, 83.48 27.36, 107.81 -0.25 M12.61 107.16 C48.24 67.21, 82.5 28.78, 106.54 0.3 M15.65 109.43 C51.42 69.52, 86.49 29.73, 112.95 -0.07 M17.67 107 C47.03 73.91, 76.93 39.88, 110.33 0.03 M22.82 107.36 C55.89 67.13, 88.16 31.84, 116.81 -0.59 M22.72 107.43 C58.3 67.22, 93 26.97, 116.58 1.18 M26.27 108.05 C64.09 68.69, 101.2 23.33, 119.94 1.97 M28.89 108.36 C51.87 79.21, 75.44 52.58, 122.2 -0.57 M32.19 109.05 C60.54 79.19, 84.61 45.94, 125.81 1.57 M34.55 108.2 C58.48 77.98, 83.08 50.65, 126.69 1.29 M40.01 107.85 C58.19 83.15, 78.87 60.29, 130.55 1.94 M38.44 108.45 C75.59 65.76, 111.5 24.64, 133.12 -0.6 M44.83 108.71 C66.14 81.38, 90.28 58.26, 138.8 -0.5 M43.4 108.23 C74.8 68.65, 108.5 32.91, 137.33 1.1 M49.25 109.59 C68.13 85.73, 88.35 61.81, 142.09 -1.81 M49.53 106.87 C71.45 81.77, 92.4 57.38, 143.6 -1.02 M53.77 108.96 C85.7 67.74, 119.98 30.75, 146.71 0.4 M55.9 106.45 C90.03 69.01, 124.58 28.79, 147.9 -0.52 M60.67 108.74 C82.33 86.01, 102.75 62.07, 152.13 1.78 M59.72 108.38 C78.5 86.39, 96.14 63.2, 153.5 -0.61 M64.36 109.1 C99.8 66.56, 136.08 24.74, 158.8 2.17 M66.02 107.94 C92.16 75.91, 120.93 42.31, 158.19 0.47 M71.28 107.42 C93.94 79.66, 122.56 48.88, 162.59 0.43 M70.89 106.87 C94.89 81.19, 119.35 54.23, 164 -0.02 M78.25 109.1 C107.94 68.84, 143.68 29.2, 170.62 1.37 M77.09 107.92 C103.95 74.63, 133.06 41.82, 170.32 -0.74 M80.38 106.47 C108.58 79.46, 132.58 48.2, 175.68 -1.43 M81.3 107.41 C104.11 80.96, 127.1 55.92, 175.65 0.27 M85.41 105.64 C111.74 80.64, 135.19 50.48, 180.06 1.29 M87.77 107.79 C122.69 66.71, 160.77 22.66, 180.74 0.18 M93.61 109.4 C121.69 70.66, 153.6 38.47, 184.63 2.81 M91.53 108.22 C123.18 70.6, 156.15 33.28, 185.01 1.43 M96.13 108.07 C133.42 67.5, 164.94 30.17, 184.73 7.4 M98.06 107.11 C128.03 71.8, 159.72 35.78, 183.7 8.3 M102.9 106.41 C121.14 86.6, 138.91 62.06, 184.41 12.01 M102.51 106.68 C122.72 84.81, 143.26 59.72, 185.44 12.36 M109 106.44 C125.53 87.25, 142.57 66.97, 185.78 21.34 M107.33 107.56 C125.5 88.22, 142.07 66.34, 184.97 19.23 M114.51 106.39 C136.44 81.54, 160.78 57.17, 183.36 26.09 M113.51 107.31 C139.22 78.11, 164.16 47.14, 184.7 24.48 M118.27 108.25 C140.74 82.49, 159.97 60.93, 183.94 29.9 M117.59 107.77 C134.36 89.98, 151.73 70.84, 183.97 32.28 M124.99 108.92 C141.49 89.8, 156.19 70.45, 184.29 36.96 M124.14 107.81 C137.51 93.2, 148.52 77.05, 184.04 38.67 M128.47 107.39 C139.94 94.53, 153.94 81.79, 186.34 43.1 M128.22 108.24 C143.87 92.16, 158.4 76.13, 184.55 44.4 M133.23 108.27 C149.09 91.39, 164.14 72.92, 184.3 50.98 M134.38 107.02 C145.5 93.75, 156.86 82.13, 184.03 49.73 M138.48 108.74 C154.28 92.32, 169.78 72.22, 186.42 57.64 M139.92 107.91 C154.66 90.33, 170.34 73.88, 184.88 55.73 M144.41 109.39 C158.91 92.92, 172.51 75.19, 182.83 61.45 M144.52 106.94 C159.13 90.44, 174.44 75.08, 184.61 62.87 M148.14 109.09 C160.86 97.33, 168.87 83.85, 183.27 69.67 M149.44 107.09 C163.52 93.8, 175.25 77.71, 184.83 68.3 M154.03 107.9 C164.72 98.37, 173.95 86.47, 184.28 73.61 M155.21 106.73 C164.13 98.19, 173.37 86.73, 183.74 74.69 M161.61 105.92 C171.85 96.49, 180.87 87.91, 184.28 79.75 M160.83 108.27 C167.66 100.77, 172.19 94.28, 184.58 81.03 M167.91 106.16 C171.43 99.19, 177.48 92.52, 185.37 85.36 M165.44 106.69 C169.04 103.01, 172.9 99.12, 184.69 85.96 M171.37 109.41 C174.12 101.04, 180.6 96.37, 185.16 93.4 M171.52 108.1 C175.69 103.58, 179.49 97.17, 184.68 92.29 M177.61 108.38 C178.94 104.26, 180.53 103.86, 183.23 99.65 M176.72 107.91 C179.93 103.71, 182.19 101.45, 183.76 98.7" stroke="#fa5252" stroke-width="0.5" fill="none"></path><path d="M0.61 1.93 C59.2 1.17, 120.3 0.04, 182.95 -0.04 M0.42 -0.86 C39.85 0.47, 78.69 0.47, 182.14 -0.38 M184.35 0 C185.73 33.59, 182.58 64.96, 183.51 107.36 M182.45 -0.22 C182.21 24.5, 182.36 47.46, 182.97 105.35 M183.6 104.48 C117.87 105.38, 57.36 106.34, 1.74 107.71 M183.54 106.36 C138.58 106.76, 93.45 106.16, -0.41 105.24 M-0.52 107.86 C1.95 76.6, -0.79 44.39, -0.45 -1.99 M-0.63 105.81 C-0.66 70.89, -1.29 35.46, -1 0.76" stroke="#000000" stroke-width="1" fill="none"></path></g><g transform="translate(591 70.33334350585938) rotate(0 81.5 35)"><text x="81.5" y="25" font-family="Virgil, Segoe UI Emoji" font-size="28px" fill="#000000" text-anchor="middle" style="white-space: pre;" direction="ltr">Instantiate</text><text x="81.5" y="60" font-family="Virgil, Segoe UI Emoji" font-size="28px" fill="#000000" text-anchor="middle" style="white-space: pre;" direction="ltr">Bean</text></g><g stroke-linecap="round"><g transform="translate(267.3192065295484 113.81079421428473) rotate(0 26.76541228257122 -3.1962311596461745)"><path d="M1.17 0.57 C10.23 -0.63, 44.52 -5.87, 53.21 -6.96 M0.32 -0.18 C9.34 -1.19, 43.56 -4.19, 52.28 -5.46" stroke="#000000" stroke-width="1" fill="none"></path></g><g transform="translate(267.3192065295484 113.81079421428473) rotate(0 26.76541228257122 -3.1962311596461745)"><path d="M29.21 6.53 C32.94 4.13, 39.45 0.09, 50.49 -4.86 M28.69 6.67 C34.37 3.44, 37.76 0.93, 52.18 -5.3" stroke="#000000" stroke-width="1" fill="none"></path></g><g transform="translate(267.3192065295484 113.81079421428473) rotate(0 26.76541228257122 -3.1962311596461745)"><path d="M27.16 -11.69 C31.33 -10.47, 38.25 -10.86, 50.49 -4.86 M26.64 -11.56 C32.62 -10.88, 36.45 -9.49, 52.18 -5.3" stroke="#000000" stroke-width="1" fill="none"></path></g></g><g stroke-linecap="round" transform="translate(20.5 10.333343505859375) rotate(0 265 101)"><path d="M-0.37 0.56 C122.82 2.19, 244.49 0.97, 529.72 0.77 M-0.26 -0.17 C148.66 -1.91, 297.59 -1.67, 529.89 -0.03 M530.26 -0.3 C529.3 70.67, 526.87 143.65, 531.55 200.81 M529.84 0.08 C531.09 69.79, 531.86 139.29, 529.45 202.73 M529.85 202.67 C319.48 201.96, 109.15 202.36, -0.42 202.63 M529.79 202.09 C325.1 200.39, 120.77 200.37, -0.35 202.13 M1.31 203.76 C-0.96 160.09, -2.85 116.68, 0.78 1.17 M-0.86 201.2 C0.01 140.25, 0.63 78.19, -0.28 -0.67" stroke="#000000" stroke-width="1" fill="none"></path></g><g stroke-linecap="round"><g transform="translate(523.5 103.33334350585938) rotate(0 25.680146529106423 -1.1973160648418002)"><path d="M0.18 0.86 C8.66 0.62, 41.89 -0.84, 50.23 -1.56 M-1.18 0.27 C7.74 -0.3, 43.56 -2.76, 52.54 -3.26" stroke="#000000" stroke-width="1" fill="none"></path></g><g transform="translate(523.5 103.33334350585938) rotate(0 25.680146529106423 -1.1973160648418002)"><path d="M30.58 5.68 C36.3 3.1, 38.93 -0.01, 52.98 -2.43 M29.72 7.25 C36.79 4.91, 43.42 0.29, 52.39 -3.85" stroke="#000000" stroke-width="1" fill="none"></path></g><g transform="translate(523.5 103.33334350585938) rotate(0 25.680146529106423 -1.1973160648418002)"><path d="M29.49 -11.74 C35.46 -10.02, 38.36 -8.81, 52.98 -2.43 M28.62 -10.17 C36.12 -7.51, 43.07 -7.12, 52.39 -3.85" stroke="#000000" stroke-width="1" fill="none"></path></g></g><g stroke-linecap="round" transform="translate(585 231.33334350585938) rotate(0 91.5 53)"><path d="M0 0 C0 0, 0 0, 0 0 M0 0 C0 0, 0 0, 0 0 M-0.73 5.82 C0.93 5.73, 1.59 3.7, 5.7 -0.43 M-0.11 6.29 C0.97 4.24, 2.55 2.36, 5.12 0.55 M1.64 10.7 C4.9 6.62, 7.72 4.87, 10.19 0.89 M-0.6 11.79 C3.16 8.86, 7.57 3.49, 10.12 0.64 M0.63 18.44 C5.15 14.69, 8.35 11.47, 16.39 1.38 M-0.67 17.84 C3.93 13.47, 7.99 8.55, 15.94 0.15 M-1.3 22.23 C5.52 17.54, 7.84 11.68, 21.8 -1.86 M0.66 23.64 C5.8 18.32, 10.85 12.41, 22.25 0.79 M-1.77 31.68 C7.17 23.59, 13.81 14.59, 27.9 1.39 M0.13 31.38 C6.32 22.08, 14 13.63, 25.81 -0.34 M0.3 37.49 C8.79 23.83, 18.74 13.46, 31.99 -0.74 M0.59 37.46 C7.05 28.97, 12.83 22.17, 31.15 -0.95 M0.1 42.52 C11.6 32.24, 21.31 16.53, 38.63 1.17 M-0.61 43.21 C7.32 33.98, 14.17 25.27, 37.74 1.11 M1.7 49.16 C10.9 39.4, 19.17 28.21, 41.82 0.91 M-1.01 49.54 C11.8 36.06, 22.3 21.16, 41.82 0.25 M-0.35 55.17 C18 35.75, 37.77 13.59, 48.59 -0.17 M0.11 54.14 C16.59 35.42, 31.56 18.52, 47.7 -0.41 M-1.49 60.85 C13 43.57, 29.05 26.85, 53.14 -2.14 M-0.95 61.88 C12.97 44.06, 28.74 27.88, 53.57 -0.58 M-1.65 68.88 C21.47 42.91, 41.45 20.86, 56.48 0.77 M-1.18 68.07 C19.83 43.43, 41.49 18.07, 58.82 -0.43 M1.68 71.7 C21.59 50.03, 42.9 24.53, 64.51 -0.83 M-0.22 73.05 C20.98 48.24, 43.67 23.14, 63.85 -0.08 M0.3 78.94 C25.84 46.81, 53.07 17.59, 67.69 -0.29 M0.16 78.98 C16.33 59.57, 32.98 40.64, 69.38 0.82 M0.85 85.2 C27.11 50.57, 57.24 19.22, 75.16 0.2 M-0.68 84.95 C30.06 50.78, 58.21 16.82, 74.26 -0.52 M0.33 93.25 C18.85 67.84, 37.81 46.31, 78.31 0.7 M0.96 91.47 C27.92 58.81, 55.51 27.4, 78.81 0.47 M-0.32 97.87 C25.51 66.93, 49.81 37.29, 85 -1.35 M0.34 97.6 C21.34 74.42, 43.25 49.99, 84.58 0.14 M-1.39 105.24 C29.28 71.46, 55.7 36.94, 91.09 0.06 M0.86 103.7 C27.82 71.97, 55.91 39.44, 89.72 1.01 M0.49 106.04 C31.55 73.16, 62.86 34.95, 94.65 -1.48 M2.59 107.83 C26.41 80.6, 49.6 54.61, 94.73 0.29 M6.55 107.11 C39.2 73.11, 68.98 36.44, 99.49 -1.55 M6.21 108.67 C38.74 70.15, 72.7 33.14, 99.84 0.26 M10.86 107.33 C43.8 69.45, 77.5 32.15, 105.39 -1.87 M11.59 106.79 C39.69 76.43, 66.5 44.04, 106.78 -1.31 M19.08 107.95 C53.3 64.61, 90.99 23.73, 111.65 0.86 M18.34 108.25 C53.23 68.31, 87.93 27.09, 112.1 -0.63 M22.67 108.25 C44.76 80.96, 68.75 59.23, 114.57 -1.15 M23.61 107.58 C42.04 86.29, 60.91 64.46, 116.32 1.17 M26.5 108.66 C50.75 84.04, 70.26 59.07, 122.39 0.55 M27.43 108.19 C55.08 75.49, 82.89 43.59, 122.54 0.85 M34.99 105.86 C64.52 76.24, 94.09 41.52, 126.16 2.11 M34.57 106.83 C66.78 69.36, 99.6 32.24, 127.04 -0.34 M39.72 107.93 C71.98 71.7, 100.49 35.09, 133.23 -0.87 M37.75 108.03 C63.2 78.27, 87.75 49.55, 132.4 0.56 M45.58 105.48 C70.36 76.02, 95.06 45.93, 138.87 1.92 M43.57 106.51 C65.97 83.93, 85.83 61.34, 136.84 0.67 M50.36 106.76 C80.04 73.37, 113.03 39.37, 144.38 -1.5 M49.72 107.67 C74.85 78.95, 100.5 48.47, 144.04 -0.32 M54.9 108.78 C83.26 77.41, 107.84 44.98, 148.73 1.84 M54.86 107.96 C77.06 80.2, 100.47 54.25, 148.43 0.33 M58.71 108.46 C89.38 75.35, 121.02 38.37, 154.71 0.88 M59.91 107.36 C90.25 70.56, 122.34 35.88, 153 0.77 M66.09 105.73 C92.92 76.68, 118.15 44.09, 160.49 -0.25 M65.85 107.82 C100.23 65.89, 136.79 25.93, 158.66 1.09 M69.75 106.67 C101.99 69.2, 135.19 34.91, 165.81 0.81 M71.06 107.69 C98.5 75.48, 126.78 41.52, 163.97 -0.31 M76.97 106.61 C99.1 81.37, 121.22 56.29, 167.56 -0.16 M77.11 108.12 C106.78 71.64, 139.38 35.65, 168.54 -0.23 M81.16 109.31 C113.45 69.66, 145.98 34.06, 173.94 1.12 M82.06 107.57 C106.42 77.24, 132.04 48, 174.79 -0.31 M88.06 106.01 C117.66 69.16, 150.5 35.62, 180.06 0.6 M86.34 108.19 C117.63 72.55, 149.26 36.95, 179.26 -0.5 M91.3 106.64 C126.93 65.84, 163.74 25.43, 184.75 2.48 M91.97 108.29 C127.78 67.96, 161.04 28.37, 185.14 0.83 M98.56 106.85 C129.02 68.83, 159.73 33.19, 182.21 6.4 M98.43 106.74 C127 72.98, 156.74 38.65, 183.57 7.33 M103.2 107.22 C124.93 83.12, 148.26 56.93, 184 13.43 M101.97 107.46 C131.38 73.87, 160.23 40.78, 185.32 14.08 M106.36 108.34 C135.36 76.59, 162.24 46.2, 184.13 21.35 M107.41 107.8 C127.3 82.88, 147.65 60.08, 183.59 20.08 M112.61 105.93 C135.06 85.02, 154.42 60.85, 185.2 27.18 M113.44 107.04 C129.55 91.06, 143.61 74.53, 183.81 26.14 M119.38 106.76 C139.26 84.91, 160.17 59.31, 185.93 30.35 M117.81 107.51 C140.75 80.77, 163.41 55.38, 184.9 31.39 M123.94 107.96 C137.99 89.77, 150.84 74.31, 182.71 36.57 M123.89 107.34 C144.91 82.99, 168.51 55.65, 184.44 38.37 M130.2 108.46 C145.62 90.35, 161.61 69.96, 184.45 45.16 M129.28 107.09 C146.95 86.46, 166.25 66.11, 185.29 43.78 M134.3 108.81 C146.17 93.41, 160.19 78.32, 183.54 48.5 M134.98 106.99 C148.81 91.76, 164.04 73.68, 184.14 51.19 M140.12 106.35 C155.63 87.09, 172.47 67.8, 185.25 55.84 M138.68 107.36 C155.37 89.97, 170.62 71.99, 184.72 56.14 M145.49 106.29 C158.65 90.57, 172.46 73.15, 183.43 60.45 M144.56 107.01 C156.94 95.14, 167.77 83.42, 185.04 62.66 M149.77 108.89 C155.42 100.15, 165.26 90.09, 185.91 67.52 M150.65 107.73 C157.28 99.63, 165.81 90.01, 184.63 68.41 M155.99 108.53 C167.55 94.69, 178.86 83.23, 185.46 73.46 M156.6 106.71 C162.47 99.26, 170.92 91.29, 185.07 73.4 M162.48 108.87 C168.56 99.66, 173.69 90.37, 182.66 81.37 M161.01 106.97 C168.77 98.71, 175.07 89.99, 184.62 80.65 M164.97 105.96 C174.04 102.22, 177.56 95.7, 183.38 84.86 M167.25 107.79 C173.62 99.99, 179.97 90.16, 185.34 85.39 M172.26 107.38 C177.65 103.97, 180.76 96.94, 182.44 91.17 M170.74 107.17 C176.22 102.76, 179.89 95.84, 184.44 93.5 M176.58 107.37 C179.04 104.53, 181.92 101.39, 184.62 100.19 M176.85 107.88 C178.72 104.87, 180.88 102.69, 183.74 98.89" stroke="#fa5252" stroke-width="0.5" fill="none"></path><path d="M-1.85 -1.98 C46.43 -0.57, 88.86 1.49, 184.58 0.91 M0.37 0.28 C50.57 0.89, 103.03 1.23, 182.22 0.77 M181.07 -1.09 C185.05 40.46, 181.99 84.33, 184.61 107.38 M183.37 -0.21 C183.45 23.24, 183.04 48.77, 183.64 105.99 M183.59 104.01 C135.79 107.22, 83.65 106.07, -0.58 107.16 M183.86 106.57 C128.96 104.25, 75.46 104.32, 0.23 106.62 M0.38 107.27 C0.03 78.41, 2.52 50.95, -1.95 1.52 M0.21 105.79 C1.84 81.57, 0.92 59.84, -0.06 0.88" stroke="#000000" stroke-width="1" fill="none"></path></g><g transform="translate(623 249.33334350585938) rotate(0 53.5 35)"><text x="53.5" y="25" font-family="Virgil, Segoe UI Emoji" font-size="28px" fill="#000000" text-anchor="middle" style="white-space: pre;" direction="ltr">Setters</text><text x="53.5" y="60" font-family="Virgil, Segoe UI Emoji" font-size="28px" fill="#000000" text-anchor="middle" style="white-space: pre;" direction="ltr">Called</text></g><g stroke-linecap="round" transform="translate(618 439.3333435058594) rotate(0 56.5 34.5)"><path d="M0 0 C0 0, 0 0, 0 0 M0 0 C0 0, 0 0, 0 0 M-0.02 5.9 C1.32 3.35, 4.03 1.84, 4.73 -0.36 M-0.03 6.58 C1.05 4.53, 2.85 2.79, 4.65 0.33 M0.14 12.93 C5.9 7.28, 7.43 3.81, 11.36 -1.53 M0.68 12.05 C4.55 6.71, 8.76 3.15, 11.31 -0.72 M0.12 19.97 C4.48 14.73, 7.48 9.18, 16.67 -0.22 M0.5 18.59 C4.88 12.67, 7.64 8.03, 16 1.03 M0.88 23.8 C5.91 21.09, 8.27 15.15, 20.87 0.58 M-0.16 24.7 C5.67 16.76, 13.11 9.84, 20.63 -0.31 M-0.11 29.17 C8.7 19.92, 18.27 8.99, 24.28 -0.36 M0.93 29.52 C8.45 20.88, 17.7 10.24, 25.83 0.69 M1.26 38.49 C6.59 29.21, 15.74 16.16, 32.47 1.13 M0.45 36.39 C12.38 23.04, 23.66 9.51, 31.27 0.13 M-1.16 43.24 C11.36 31.84, 19.84 19.27, 36.25 1.19 M0.19 41.63 C13.25 27.82, 26.2 13.56, 37.01 1.2 M-0.58 47.06 C7.91 36.32, 19.26 26.33, 42.08 -1.31 M-0.54 49.43 C15.73 30.43, 32.36 11.57, 43.19 0.7 M0.43 53.36 C15.17 35.76, 33.2 16.93, 47.95 2.2 M0.18 55.07 C15.7 35.86, 31.62 18.41, 47.23 -0.34 M1.82 60.26 C13.6 42.73, 29.16 25.66, 53.73 0.84 M0.04 61.56 C18.48 39.01, 38.05 16.26, 53.51 -0.17 M-0.22 68.14 C19.5 42.48, 40.5 18.55, 57.07 -0.87 M-0.49 66.89 C12.16 53.92, 23.67 39.64, 58.55 0.32 M3.87 72.54 C25.65 44.71, 46.59 19.06, 63.75 -0.11 M2.34 70.62 C18.37 52.29, 33.52 32.81, 64.71 0.09 M5.53 70.31 C29.13 47.14, 47.32 22.48, 67.6 -0.89 M7.32 71.72 C21.6 54.29, 37.07 35.9, 69.37 0.58 M11.88 71.73 C37.64 43.06, 60.88 16.78, 72.82 0.82 M13.44 70.36 C36.55 44.4, 61.27 15.95, 74.62 0.21 M17.48 70.39 C37.8 48.34, 58.5 22.95, 77.87 -0.02 M16.94 71.46 C40.72 45.57, 62.35 20.55, 78.43 1.01 M23.38 69.74 C38.94 51.16, 56.79 31.92, 85.89 1.31 M23.69 71.02 C43.97 47.16, 63.19 26.05, 84.39 -0.91 M29.07 70.07 C42.38 54.42, 61.43 34.05, 88.5 -1.76 M28.39 70.66 C48 48.23, 67.24 27.47, 90.83 -0.68 M34.76 71.31 C47.26 55.49, 59.32 41.93, 96.24 -0.29 M34.28 70.2 C57.05 43.59, 80.74 18.48, 96.54 -0.22 M37.34 71.96 C53.5 57.76, 64.59 40.68, 102.42 1.1 M38.3 70.23 C51.41 54.88, 64.95 40.93, 99.97 0.4 M44.69 71.91 C60.24 50.74, 75.38 35.1, 105.49 -0.94 M44.79 70.65 C68.18 43.01, 92.47 16.19, 106.91 -0.52 M47.62 71.36 C71.08 43.42, 93.82 19.95, 112.9 -1.56 M48.66 71.25 C64.25 54.2, 79.97 37.2, 111.65 0.27 M54.19 69.67 C68.32 57.56, 81.86 42.98, 113.55 1.37 M55.1 70.27 C73.48 49.69, 90.24 30.62, 114.73 1.81 M61.59 72.26 C79.5 48.9, 96.42 30.02, 116.93 6.4 M60.77 70.96 C79.39 48.7, 99.6 25.15, 115.41 7.68 M66.56 69.43 C77.79 59.92, 85.15 47.89, 116.1 14.6 M65.45 70.13 C82.67 50.52, 101.76 28.91, 115.99 13.83 M69.2 71.31 C85.32 53.23, 97.91 40.2, 114.35 21.97 M71.3 70.75 C87.19 52.23, 105.03 31.93, 115.69 20.69 M75.42 70.69 C87.63 57.56, 102.63 42.15, 116.19 26.05 M76.44 70.45 C90.89 54.08, 103.62 38, 115.08 25.41 M80.75 69.89 C88.72 61.13, 96.8 52.95, 114.6 33.07 M82.26 70.16 C91.77 59.62, 101.82 46.44, 114.53 32.77 M88.73 71.65 C97.2 59.61, 109.34 44.1, 116.67 37.52 M86.99 70.6 C97.34 57.9, 108.48 45.49, 115.24 38.38 M90.82 70.03 C97.13 63.64, 106.4 55.4, 115.53 45.09 M92.99 70.9 C100.78 62.43, 108.91 51.95, 114.43 45.34 M96.72 69.22 C103.24 63.56, 110.02 58.59, 116.04 52.24 M98.37 71.12 C102.06 65.56, 105.88 62.36, 114.38 51.48 M102.34 70.49 C105.19 65.07, 109.85 60.29, 114.02 57.31 M102.23 70.83 C107.47 65.53, 111.92 60.12, 114.9 56.22 M107.51 71.46 C111.42 68.66, 114.08 64.51, 115.03 63.41 M107.64 70.76 C109.32 68.96, 110.98 67.93, 115.39 63.11" stroke="#4c6ef5" stroke-width="0.5" fill="none"></path><path d="M-1.45 0.13 C24.75 -0.26, 46.15 2.45, 111.02 0.12 M-0.26 -0.79 C44.02 -1.31, 88.73 -0.1, 113.47 0.19 M111.32 1.9 C110.93 27.55, 113.55 52.06, 114.16 69.65 M112.69 -0.49 C113.31 25.35, 111.6 48.72, 113.85 68.15 M113 70.93 C76.25 71.17, 40.19 70.2, 1.06 68.07 M112.4 69.24 C68.2 68.7, 23.38 68.72, -0.17 68.24 M-1.85 69.59 C-1.6 45.62, -2.06 26.36, -1.79 -0.85 M-0.44 69.14 C0.31 47.68, 0.62 27.78, 0.86 -0.71" stroke="#000000" stroke-width="1" fill="none"></path></g><g stroke-linecap="round" transform="translate(388 421) rotate(0 91.5 53)"><path d="M0 0 C0 0, 0 0, 0 0 M0 0 C0 0, 0 0, 0 0 M-0.25 6.66 C0.98 4.6, 4.01 2.97, 4.3 -0.18 M0.04 6.58 C1.24 4.79, 2.41 3.31, 4.88 0.25 M0.38 13.43 C2.65 6.35, 7.09 3.43, 11.76 -1.5 M0.02 12.52 C3.82 8.4, 6.31 5.29, 10.89 -0.04 M1.1 17.07 C5.72 12.5, 12.38 3.34, 15.13 1.51 M-0.78 17.95 C3.42 14.15, 6.74 9.71, 15.29 0.79 M-1.65 22.58 C7.27 16.32, 12.46 10.28, 22.06 -0.85 M1.08 23.38 C8.38 15.48, 13.74 7.95, 21.88 0.76 M-0.97 30.87 C7.42 20.49, 15.75 12.83, 26.72 -0.1 M0.37 31.14 C10.93 18.4, 21 6.34, 26.71 0.74 M-2.03 37.07 C6.46 29.47, 14.17 20.84, 33.78 -1.74 M-1.19 36.31 C9.37 25.21, 20.32 12.35, 31.3 0.75 M1.17 41.96 C14.49 27.1, 27.99 13.24, 38.56 1.29 M-0.46 41.66 C11.21 29.71, 22.33 17.48, 37.87 0.61 M0.9 47.12 C7.46 36.98, 17.98 27.77, 41.39 -0.56 M-0.47 48.48 C14.54 30.87, 29.82 13.66, 43.03 0.43 M1.47 54.54 C18.27 35.26, 34.19 14.3, 47.51 1.48 M0.66 53.86 C14.57 37.03, 29.34 20.57, 46.98 -0.77 M-0.93 61.51 C12.83 46.94, 23.64 33.26, 53.41 1.33 M0.91 61.33 C18.94 38.59, 37.83 18.13, 53.2 -0.55 M-0.48 68.24 C20.78 42.68, 39.37 22.25, 58.72 0.96 M-0.65 68.05 C19.37 44.91, 38.39 22.72, 57.62 -0.43 M1.39 72.98 C21.44 50.55, 39.2 26.36, 64.63 1.24 M0.66 73.73 C14.42 57.08, 29.31 38.37, 64.31 0.62 M-0.81 79.15 C18.9 60.67, 33.9 38.9, 69.67 0.88 M-0.46 79.39 C27.8 48.45, 53.98 16.7, 68.7 0.79 M1.08 86.96 C26.65 55.91, 54.31 23.53, 76.18 -0.8 M-0.19 84.69 C27.36 53.44, 55.02 21.9, 75.2 -0.08 M0.72 92.28 C14.54 72.61, 33.59 52.22, 78.14 -0.89 M-0.47 90.49 C18.57 71.47, 35.12 49.26, 78.47 0.17 M-0.98 98.3 C16.13 77.78, 36.45 56.74, 83.52 -2.09 M0.09 98.15 C28.78 64.46, 58.07 31.9, 85.05 0.47 M-0.72 102.59 C21.3 77.96, 46.43 53.95, 90.21 -1.8 M0.63 104.34 C26.1 74.7, 50.57 45.93, 90.55 -0.82 M0.33 106.03 C23.5 80.26, 49.36 51.53, 96.37 -1.25 M2.51 107.65 C29.47 74.08, 59.57 40.56, 95.37 0.56 M6.94 108.15 C39.7 70.57, 74.24 32.38, 100.3 1.37 M7.04 107.57 C37.78 71.56, 71.22 35.68, 99.87 -0.58 M13.07 106.83 C35.02 83.99, 57.17 57.21, 106.82 -2.2 M12.04 107.89 C40.16 77.4, 67.43 44.23, 106.04 -0.39 M16.89 108.33 C39.34 80.28, 64.79 54.75, 111.13 0.56 M18.14 108.48 C43.16 77.06, 70.38 47.62, 110.72 0.65 M23.19 106.7 C59.83 66.24, 93.88 26.55, 116.57 -1.41 M22.56 108.32 C52.7 73.84, 81.05 42.4, 116.61 0.98 M27.31 106.66 C63.08 70.49, 94.83 31.58, 121.73 0.37 M28.31 108.1 C55.07 76.04, 84.56 44.19, 122.74 0.81 M33.46 106.48 C63.24 75.76, 89.5 44.09, 127.63 1.05 M33.84 106.75 C70.38 67.71, 105.39 27.4, 126.95 0.92 M38.64 108.85 C65.15 75.02, 92.38 44.31, 131.44 -1.92 M38.25 108.04 C66.73 75.38, 95.82 40.86, 132.9 -0.03 M42.99 107.73 C72.09 75.56, 96.24 43.17, 138.35 2.08 M44.97 107.11 C78.99 68.21, 111.24 29.88, 137.29 1.07 M49.65 107.29 C81.16 70.64, 113.66 32.11, 143.93 -0.3 M48.97 107.08 C82.07 71.01, 114.8 32.67, 143.52 0.36 M55.17 108.68 C80.68 80.8, 101.84 50.28, 150.03 0.51 M54.4 107.53 C84.62 74.59, 114.89 40.22, 148.88 -0.48 M61.38 109.04 C95.16 66.88, 133.71 23.15, 155.16 -0.11 M59.83 107.16 C93.18 68.21, 127.39 28.1, 154.26 0.37 M65.73 108.25 C95.78 72.84, 126.35 35, 158.31 1.86 M65.92 108.26 C96.59 73.08, 126.38 37.06, 159.31 -0.54 M69.21 107.89 C105.79 66.87, 144.74 26.71, 165.41 -2 M70.56 107.37 C92.28 83.27, 112.65 60.77, 164.14 0.56 M74.7 106.05 C104.06 73.93, 133.65 40.95, 169.12 -1.69 M76.65 107.74 C103.36 77.18, 130.67 47.12, 168.5 -0.71 M82.84 108.27 C105.69 81.45, 128.8 52.84, 175.27 -1.92 M81.21 107.97 C107.54 76.7, 135.02 45.85, 175.5 -0.38 M86.43 106.37 C122.97 66.5, 160.91 23.45, 178.71 0.77 M87.08 106.53 C115.14 73.65, 143.59 40.23, 180.73 0.52 M90.27 109.33 C118.97 76.03, 144.41 48.5, 184.36 2.38 M92.16 108.36 C115.28 79.65, 139.51 52.43, 184.72 1.93 M97.57 106.19 C117.54 87.07, 136.69 64.12, 183.09 6.36 M97.03 107.38 C125.15 75.07, 151.71 43.22, 184.05 7.41 M101.8 108.9 C120.78 85.79, 138.3 68.03, 186 13.37 M102.17 107.11 C130.95 74.3, 160.8 41.2, 184.97 13.56 M109.09 107.2 C130.4 82.93, 151.87 58.85, 185.75 20.32 M107.66 107.18 C125.97 85.59, 145.44 63.17, 184.05 18.76 M114.07 107.49 C129.26 92.31, 145.15 73.93, 182.92 26.6 M112.32 107.94 C134.65 82.65, 156.01 58.54, 183.83 25.11 M117.62 108.49 C138.62 84.25, 157.19 63.29, 185.83 33.07 M118.81 107.72 C136.93 87.17, 154.37 65.93, 183.97 31.06 M122.01 108.31 C141.78 88.78, 161.08 63.87, 184.31 37.61 M124.04 107.71 C141.27 85.16, 160.22 64.05, 184.35 38.67 M130.06 107.61 C149.25 82.82, 173.28 57.7, 184.82 42.27 M129.66 108.71 C148.61 86.58, 167.86 62.41, 185.46 44.46 M134.87 109.23 C147.26 89.14, 164.56 71.74, 185.63 48.39 M135.1 108.46 C152.66 86.32, 170.55 63.86, 184.92 50.21 M139.67 109.05 C154.82 86.84, 174 70.36, 186.53 56.23 M138.74 108.25 C151.77 93.63, 165.64 79.41, 184.5 56.27 M144.22 106.85 C156.68 93.38, 167.65 78.75, 184.7 63.85 M145.62 107.39 C158.1 91.27, 172.55 76.07, 185.3 62.14 M148.67 109.22 C159.67 96.89, 167.94 88.47, 184.44 66.72 M150.6 107.86 C159.5 96.37, 167.77 86.48, 184.78 67.73 M155.93 108.42 C165.73 93.35, 178.06 80.08, 184.3 72.85 M156.06 106.83 C161.82 101.31, 168.62 93.69, 185.25 74.23 M159.58 109.24 C166.3 101.88, 173.22 91.33, 184.29 81.94 M161.1 107.22 C169.2 98.66, 177.02 90.5, 184.29 80.93 M166.2 107.9 C173.03 100.26, 181.03 92.74, 183.53 84.95 M167.22 108.28 C171.45 101.32, 177.9 95.07, 183.86 86.46 M171.26 106.9 C177.25 103.28, 181.94 95.35, 184.18 91.03 M171.49 108.15 C175.06 102.53, 178.16 99.87, 185.4 93.43 M177.25 106.6 C179.64 104.22, 181.65 101.73, 184.69 99.12 M176.55 107.96 C179.51 104.67, 182.48 101.35, 184.57 99.43" stroke="#4c6ef5" stroke-width="0.5" fill="none"></path><path d="M-0.97 1.85 C39.9 -0.99, 75.85 2.26, 181.31 0.5 M0.97 0 C37.63 0.33, 73.9 0.53, 182.53 0.94 M183.47 -0.63 C183.05 34.65, 183.08 71.53, 181.47 106.26 M183.29 -0.47 C181.28 41.24, 182.44 82.99, 182.58 106.06 M183.28 107.06 C121.95 106.87, 63.76 106.92, -1.42 106.05 M183.59 106.11 C115.7 106.15, 47.42 107.64, -0.27 105.66 M-1.89 105.6 C-0.98 74.4, -1.01 43.22, 0.58 1.58 M-0.62 105.43 C-1.23 83.57, -0.25 60.18, -0.91 -0.29" stroke="#000000" stroke-width="1" fill="none"></path></g><g stroke-linecap="round" transform="translate(10 423) rotate(0 91.5 53)"><path d="M0 0 C0 0, 0 0, 0 0 M0 0 C0 0, 0 0, 0 0 M-0.84 6.67 C2.36 4.84, 2.92 1.39, 4.77 1.09 M-0.13 6.45 C1.19 4.7, 2.86 2.49, 5.3 0 M-1.44 11 C2.8 8.19, 8.86 1.73, 10.18 -0.53 M0.93 11.71 C4.05 7.83, 7.35 3.99, 11.3 -0.16 M-0.36 19.38 C4.2 12.63, 7.38 10.4, 13.9 -1.17 M-0.09 18.02 C4.62 12.2, 8.94 8.31, 15.26 -0.63 M1.48 22.91 C9.58 13.94, 17.77 4.5, 21.99 -1.46 M1.14 23.77 C7.13 15.44, 16.48 6.9, 20.95 -0.99 M0.09 28.79 C11.25 17.99, 20.09 7.64, 28.2 1.83 M0.73 30.23 C6.43 22.89, 12.71 16.55, 25.45 -0.08 M-0.76 37.62 C10.01 25.83, 21.55 12.67, 32.48 0.32 M-1.15 37.33 C8.46 26.59, 17.32 17.41, 32.53 0.18 M1.24 42.33 C10.63 33.04, 20.57 21.84, 36.85 0.83 M0.37 42.36 C12.08 30.04, 24.01 17.16, 35.98 -0.7 M-1.97 47.25 C11.74 34.47, 23.31 20.34, 43.69 0.18 M-0.66 48.84 C16.16 30.23, 33.87 11.35, 43.29 0.81 M0.98 55.75 C13.07 38.83, 28.55 22.93, 47.66 0.15 M0.02 53.76 C14.29 37.95, 28.04 21.09, 46.85 0.81 M0.74 61.14 C14.08 44.73, 29.94 28.51, 54.08 -1.71 M0.06 60.23 C20.61 37.03, 40.74 12.95, 53.64 0.54 M0.9 66.23 C18.04 47.3, 38.07 24.54, 58.76 -1.18 M-0.44 66.71 C12.43 51.49, 25.36 36.58, 58.4 0.92 M1.24 74.54 C18.28 50.66, 41.48 27.35, 62.44 -0.5 M-0.51 73.86 C15.53 52.93, 33 35.75, 63.33 -0.84 M0.83 81.36 C24 50.59, 52.01 21.59, 70.59 -1.47 M0.2 79.37 C19.49 55.86, 39.67 34.49, 69.3 -0.74 M-0.26 85.41 C17.28 63.56, 34.47 46.08, 75.86 1.37 M0.42 85.22 C23.14 60.08, 46.04 34.19, 73.47 0.63 M-1.04 91.7 C27.62 59.54, 51.05 29.56, 77.9 -0.33 M0.49 92.32 C26.23 60.79, 52.79 30.97, 78.57 0.61 M-1.93 99.14 C26.06 69.48, 50.31 36.32, 85.76 -1.88 M-0.65 97.73 C28.47 64.71, 57.06 32.02, 84.51 -0.94 M-1.56 103.72 C31.35 71.68, 59.78 34.12, 89.75 1.33 M1.02 103.54 C18.81 81.11, 39.24 56.85, 89.59 0.91 M0.33 107.29 C24.68 81.99, 46.84 57.42, 95.84 0.68 M1.05 107.42 C29.92 74.46, 57.72 43.03, 96.22 -1.29 M5.32 109.05 C36.11 75.03, 65.67 41.06, 101.52 1.26 M6.25 107.64 C26.08 87.55, 43.41 64.5, 100.07 -0.76 M11.55 109.09 C29.9 86.66, 50.92 62.09, 106.15 0.65 M13.25 108.47 C36.67 80, 58.92 54.08, 105.75 0.01 M16.74 106.56 C46.13 76.68, 70.86 47.07, 110.89 -0.09 M16.82 107.93 C51.47 68.6, 85.06 28.83, 112.05 -0.13 M24.63 107.03 C56.37 70.35, 88.9 30.77, 116.37 -0.91 M23.62 106.82 C55.2 71.61, 86.12 36.01, 116.91 0.29 M28.86 109.34 C50.97 82.61, 76.43 53.55, 121.87 0.43 M27.39 107.38 C49.01 84.14, 69.27 61.87, 121.94 0.2 M35.34 108.52 C65.45 73.07, 98.3 35.45, 128.47 -0.53 M34.66 107.75 C57.16 82.44, 79.35 56.27, 126.84 0.78 M38.1 106.62 C65.24 75.59, 92.48 42.5, 132.77 0.65 M37.91 108.61 C62.9 79.26, 88.76 51.19, 132.48 0.79 M45.72 107.62 C78.25 66.33, 115.74 28.83, 138.77 0.22 M45.26 107.7 C78.47 67.87, 114.08 27.38, 138.04 1.12 M49.17 108.31 C75.28 77.2, 103.24 46.59, 144.22 1.08 M49.66 108.39 C71.73 83.52, 94.01 58.51, 142.75 -0.64 M56.17 109.11 C89.23 64.21, 128.61 24.48, 148.54 -0.31 M54.61 108.26 C78.86 81.48, 102.42 53.63, 149.02 0.36 M59.1 109.02 C94.46 67.53, 128 29.68, 155.15 0.91 M59.28 107.64 C85.23 77.83, 112.66 49.03, 154.18 0.78 M65.36 108.44 C87.19 80.19, 110.52 56.38, 159.38 0.93 M66.27 108.18 C90.97 76.87, 117.65 46.24, 159.63 -0.3 M69.24 108.06 C99.21 79.04, 124.82 45.5, 162.82 -1.95 M70.75 107.43 C103.78 70.8, 136.71 32.56, 164.55 -0.9 M74.3 107.74 C108.69 70.83, 142.64 30.36, 169.21 -0.33 M76.15 107.36 C96.18 84.86, 115.05 59.96, 169.07 0.5 M81.24 109.4 C101.34 83.01, 125.84 53.7, 174.79 1.06 M81.38 107 C104.47 81.04, 126.52 55.79, 175.97 -0.51 M86.3 107.85 C111.68 79.98, 132.84 54.27, 180.23 0.33 M86.48 106.89 C115.65 73.15, 146.71 40.17, 179.87 0.28 M93.08 105.71 C118.73 78.18, 143.43 49.69, 183.62 2.73 M91.84 107.74 C121.65 73.13, 152.13 38.47, 183.59 1.81 M98.98 108.27 C117.54 86.45, 133.49 63.87, 184.42 7.58 M97.85 106.96 C129.05 70.26, 160.75 34.72, 183.35 8.26 M103.04 106.36 C122.58 86.16, 144.26 61.26, 185.63 14.05 M102.13 107.2 C121.29 87.22, 139.6 66.57, 184.34 12.61 M108.3 107.22 C126.44 86.51, 146.4 65.15, 183.25 20.18 M107.18 106.96 C126.24 85.59, 144.65 64.66, 183.38 19.25 M113.71 109.39 C131.81 88.07, 146.55 68.05, 184.51 25.11 M113.61 107.09 C139.75 78.04, 163.08 49.54, 184.56 26 M119.83 106.32 C138.2 85.64, 157.52 65.69, 183.81 32.09 M119.1 108.17 C141.38 80.94, 163.81 53.84, 184.45 32.7 M123.99 109.52 C138.89 90.17, 151.39 75.97, 184.41 39.99 M122.96 107.26 C143.96 83.51, 166.16 59.32, 185.08 38.52 M127.46 107.66 C140.86 94.38, 152.28 79.32, 185.57 42.48 M128.53 108.77 C140.09 92.36, 154.22 79.31, 184.47 44.76 M133.12 106.2 C152.22 86.16, 168.85 67.12, 185.77 51.18 M134.24 107.73 C146.89 90.38, 162.39 75.22, 185.05 49.66 M137.4 106.26 C150.04 96.97, 162.5 83.53, 184.32 55.22 M138.78 108.37 C153.55 93.34, 166.35 77.4, 184.71 55.72 M144.62 107.51 C158.86 89.47, 175.69 74.56, 185.37 64.16 M144.82 106.67 C153.25 98.14, 161.6 89.15, 183.98 62.28 M150.85 107.05 C160.77 96.81, 171.02 82.23, 183.5 67.6 M150.15 106.95 C159.86 95.15, 172.07 82.1, 185.1 68.79 M154.33 106.26 C161.21 99.08, 167.47 92.03, 182.96 74.3 M155.43 108.41 C161.75 101.38, 168.35 93.71, 184.42 73.66 M159.31 109.69 C166.25 99.12, 174.2 93.55, 184.81 79.34 M161.29 107.68 C169.7 98.85, 177.44 88.83, 184.91 81.07 M166.42 107.93 C172.92 102.11, 175.54 94.11, 184.61 87.69 M166.13 107.43 C170.61 103.06, 172.69 98.93, 185.21 86.25 M172.59 108.5 C175.24 102.97, 176.31 100.14, 184.33 93.12 M171.2 106.88 C173.02 105.61, 177.54 102.39, 184.77 92.09 M177.16 107.02 C178.93 104.83, 181.89 102.36, 185.19 98.41 M176.6 107.95 C178.91 105.39, 181.67 102.76, 184.57 98.72" stroke="#fd7e14" stroke-width="0.5" fill="none"></path><path d="M1.34 -1.56 C47.96 0, 96.77 -1.19, 181.02 0.75 M0.87 0.34 C55.33 0.53, 109.41 0.94, 183.39 -0.54 M183.62 -1.29 C183.91 25.09, 181.72 51.13, 184.91 104.44 M182.11 -0.7 C183.58 21.09, 182.89 44.03, 183.31 106.4 M182.56 107.68 C138.1 108.69, 87.81 107.02, 1.45 104.22 M183.91 105.06 C117.98 106.74, 51.03 105.85, -0.1 106.13 M-0.84 105.16 C0.13 63.44, 1.58 24.99, -1.71 0.56 M-0.93 106.33 C0.7 70.64, -0.25 35.62, -0.66 0.85" stroke="#000000" stroke-width="1" fill="none"></path></g><g stroke-linecap="round" transform="translate(240 444.5) rotate(0 56.5 34.5)"><path d="M0 0 C0 0, 0 0, 0 0 M0 0 C0 0, 0 0, 0 0 M-0.22 6.09 C1.29 5.59, 2.27 3.56, 5.34 0.82 M-0.14 6.55 C1.16 4.6, 2 3.25, 5.26 0.29 M-0.7 11.05 C3.08 10.43, 5.49 7.41, 10.62 0.85 M0.47 12.62 C3.67 7.31, 7.82 3.29, 11.21 -0.56 M0.94 20.1 C5.16 10.3, 13.54 3.89, 15.37 1.27 M0.32 18.8 C7.2 10.38, 12.43 3.64, 15.61 0.64 M0.12 25.35 C7.67 15.28, 11.27 10.69, 23.18 -0.6 M1.15 23.8 C7.56 17.4, 13.53 8.44, 20.91 0.08 M1.59 30.81 C6.43 22.5, 17.28 11.86, 27.09 -0.77 M-0.63 29.98 C7.22 20.98, 16.54 11.28, 25.3 0.77 M-2.1 36.98 C10.88 23.76, 25.07 7.69, 32.35 -1.78 M-1.02 35.97 C11.83 22.31, 23.6 9.94, 32.2 -0.51 M0.15 44.02 C9.6 28.85, 21.87 17.09, 35.98 -1.45 M0.23 41.58 C11.19 29.65, 21.96 16.33, 37.74 1.13 M0.92 47.1 C12.26 35.15, 24.84 16.94, 40.93 -1.66 M0.23 48.45 C12.01 35.77, 24.07 22, 42.56 -0.94 M-0.32 56.3 C14.45 37.54, 26.93 24.34, 47.69 -1.3 M0.09 55.22 C17.49 35.66, 32.76 16.04, 47.1 -0.37 M-1.56 59.69 C12.6 42.6, 26.05 28.48, 52.4 -1.11 M0.27 60.03 C20.3 38.32, 39.79 14.43, 53.46 0.6 M-0.77 67.27 C20.98 42.32, 44.5 14.87, 58.53 -0.55 M-0.33 67.63 C12.47 51.91, 26.84 37.09, 58.68 -0.46 M0.98 72.01 C21.86 48.76, 39.8 27.93, 62.93 1.31 M2.26 69.84 C18.89 50.61, 36.08 31.24, 64.56 0.3 M7.77 72.31 C22.1 54.46, 34 37.67, 67.53 0.91 M7 71.29 C30.58 44.39, 52.71 17.98, 68.96 -0.56 M14.39 72.36 C27.45 53.72, 43.52 35.44, 73.39 1.35 M13.1 71.06 C35.23 44.89, 55.5 20.57, 73.65 0.68 M17.81 72.22 C37.1 48.65, 57.06 24.68, 80.38 -0.51 M17.18 70.13 C32.81 54.66, 46.96 36.99, 79.56 -0.7 M24.08 70.71 C46.97 45.91, 71.69 16.28, 85.3 1.07 M23.78 71.56 C43.57 49.09, 62.69 27.93, 84.68 0.61 M27.87 72.56 C49.64 49.39, 68.18 25.19, 89.48 -0.11 M28.73 70.92 C49.04 48.72, 67.82 24.78, 89.27 0.39 M34.68 71.52 C55.06 44.17, 79.56 20.22, 96.91 0.85 M34.94 70.75 C58.41 43.54, 81.35 16.02, 95.76 -0.71 M40.43 69.48 C64.09 43.73, 87.1 17.88, 101.9 -0.85 M39.66 71 C61.4 46.17, 82.77 19.88, 100.01 -0.66 M45.54 71.59 C63.53 52.69, 79.15 30.87, 107.15 -0.62 M44.39 71.41 C67 46.21, 88.17 21.21, 107.16 0.29 M50.65 69.4 C74.72 43.1, 95.89 16.03, 111.41 -1.37 M50.1 70.03 C67.65 47.27, 88.4 25.79, 110.89 0.14 M54.66 72 C71.4 50.32, 88.13 31.98, 113.64 -0.09 M55.11 69.62 C74.62 48.21, 92.9 26.99, 115.33 1.77 M58.4 69.09 C75.85 52.04, 91.89 34.07, 115.9 7.52 M60.35 70.06 C81.77 46.82, 102.42 21.84, 115.6 7.66 M66.75 70.16 C78.41 57.4, 86.81 44.76, 114.12 13.33 M65.22 70.83 C81.71 52.37, 97.82 34.05, 114.29 13.51 M72.23 71.6 C82.06 58.58, 93.13 43.85, 116.47 21.52 M70.86 71.44 C79.16 61.37, 88.62 50.77, 115.5 20.28 M77.19 71.79 C86.73 57.72, 98.38 43.16, 114.12 27.42 M76 69.83 C89.81 54.93, 103.78 38.98, 115.31 26.29 M81.37 70.3 C88.99 62.08, 98.29 49.99, 116.21 32.89 M82.25 70.88 C89.97 61.85, 96.48 52.11, 114.42 31.98 M88.06 70.93 C93.87 60.79, 100.28 54.9, 115.29 38.15 M87.9 70.76 C95.02 60.95, 103.29 50.58, 115.27 37.03 M91.73 68.9 C96.68 62.98, 103.58 57.75, 114.96 44.97 M91.27 71.44 C100.8 60.35, 110.28 49.41, 115.41 44.87 M96.13 69.92 C101.62 66.95, 105.71 60.35, 115.34 52.5 M98.5 71.08 C101.09 66.37, 105.6 62.64, 114.57 51.78 M101.98 69.45 C106.77 68.06, 109.15 60.04, 115.91 56.66 M102.85 70.53 C107.76 66.08, 113.06 59.78, 115.34 55.68 M108 71.71 C110.79 69.31, 110.7 67.41, 114.78 62.13 M107.84 70.72 C110.08 68.41, 111.44 66.9, 115.39 62.72" stroke="#4c6ef5" stroke-width="0.5" fill="none"></path><path d="M0.93 0.9 C29.51 -0.38, 62.32 -1.42, 113.2 -0.5 M0.94 -0.82 C38.4 0.06, 75.99 -1.08, 112.44 -0.9 M111.82 1.71 C113.91 24.39, 111.79 48.67, 112.44 70.1 M113.84 0.52 C113.41 20.33, 113.5 39.49, 112.14 69.23 M114.98 69.71 C79.11 67.34, 48.63 70.27, -1.8 67.15 M112.44 68.79 C89.09 68.84, 64.92 68.33, -0.44 68.46 M1.01 70.13 C1.91 50.75, 0.43 29.91, -0.03 0.71 M0 69.63 C0.48 44.15, 0.42 19.75, -0.7 -0.26" stroke="#000000" stroke-width="1" fill="none"></path></g><g transform="translate(627.5 438.8333435058594) rotate(0 46 35)"><text x="46" y="25" font-family="Virgil, Segoe UI Emoji" font-size="28px" fill="#000000" text-anchor="middle" style="white-space: pre;" direction="ltr">Before</text><text x="46" y="60" font-family="Virgil, Segoe UI Emoji" font-size="28px" fill="#000000" text-anchor="middle" style="white-space: pre;" direction="ltr">Init</text></g><g transform="translate(259 444) rotate(0 37.5 35)"><text x="37.5" y="25" font-family="Virgil, Segoe UI Emoji" font-size="28px" fill="#000000" text-anchor="middle" style="white-space: pre;" direction="ltr">After</text><text x="37.5" y="60" font-family="Virgil, Segoe UI Emoji" font-size="28px" fill="#000000" text-anchor="middle" style="white-space: pre;" direction="ltr">Init</text></g><g transform="translate(413.5 455.5) rotate(0 66 17.5)"><text x="66" y="25" font-family="Virgil, Segoe UI Emoji" font-size="28px" fill="#000000" text-anchor="middle" style="white-space: pre;" direction="ltr">Initializer</text></g><g transform="translate(23 441) rotate(0 78.5 35)"><text x="78.5" y="25" font-family="Virgil, Segoe UI Emoji" font-size="28px" fill="#000000" text-anchor="middle" style="white-space: pre;" direction="ltr">Bean ready</text><text x="78.5" y="60" font-family="Virgil, Segoe UI Emoji" font-size="28px" fill="#000000" text-anchor="middle" style="white-space: pre;" direction="ltr">to use</text></g><g stroke-linecap="round" transform="translate(224.5 388) rotate(0 274 101)"><path d="M-0.32 0.65 C135.57 0.29, 271.43 -0.8, 548.68 0.07 M-0.18 0.24 C197.19 -1.54, 394.04 -1.36, 548.27 0.21 M546.73 -0.3 C546 54.88, 548.53 112.94, 548.66 203.62 M547.88 0.46 C547.59 48.93, 547.87 99.22, 548.26 202.31 M548.51 202.62 C395.44 203.92, 243.71 203.26, 0.67 201.57 M547.72 202.06 C395.07 202.43, 241.7 201.76, -0.32 201.64 M0.23 201.39 C0 132.06, -0.43 60.49, 0.19 -1.34 M-0.88 202.17 C0.82 130.94, 1.28 58.39, -0.1 -0.24" stroke="#000000" stroke-width="1" fill="none"></path></g><g stroke-linecap="round" transform="translate(561.5 10) rotate(0 105.5 188.5)"><path d="M1.6 -1.63 C59.29 -1.14, 122.33 -1.54, 212.4 0.47 M0.68 0.09 C62.41 1.44, 126.9 1.02, 210.96 0.21 M210.15 0.52 C209.1 118.99, 208.94 235.23, 210.72 376.41 M210.77 -0.41 C211.76 101.84, 211.63 203.69, 211.11 376.51 M209.59 378.19 C157.07 375.34, 102.09 375.22, -1.42 378.44 M211.18 376.99 C135.55 377.25, 59.77 377.81, 0.25 377.59 M0.82 377.4 C0.68 264.66, 0.53 153.21, 0.03 -0.67 M-0.01 376.69 C-1.5 236.52, -1.14 96.24, -0.3 0.05" stroke="#000000" stroke-width="1" fill="none"></path></g><g stroke-linecap="round"><g transform="translate(671.5 159) rotate(0 0.3246523968875863 35.47708214462736)"><path d="M-1.02 -0.08 C-0.67 11.83, 1.05 59.17, 1.67 71.08 M0.64 -1.17 C0.84 10.91, 0.27 59.89, 0.55 72.13" stroke="#000000" stroke-width="1" fill="none"></path></g><g transform="translate(671.5 159) rotate(0 0.3246523968875863 35.47708214462736)"><path d="M-9.95 43.42 C-8.7 52.7, -5.54 58.3, 1.79 72.65 M-9.07 44 C-6.85 50.85, -5.76 56.76, 0 71.74" stroke="#000000" stroke-width="1" fill="none"></path></g><g transform="translate(671.5 159) rotate(0 0.3246523968875863 35.47708214462736)"><path d="M10.57 43.35 C6.37 52.47, 4.08 58.09, 1.79 72.65 M11.45 43.93 C8.85 51, 5.12 56.92, 0 71.74" stroke="#000000" stroke-width="1" fill="none"></path></g></g><g stroke-linecap="round"><g transform="translate(666.5 338) rotate(0 4.223097764700697 49.02338038519491)"><path d="M-0.55 0.36 C1.06 16.86, 7.36 82.31, 9 98.55 M1.36 -0.5 C2.87 15.68, 6.83 80.13, 8.05 96.71" stroke="#000000" stroke-width="1" fill="none"></path></g><g transform="translate(666.5 338) rotate(0 4.223097764700697 49.02338038519491)"><path d="M-3.48 69.26 C-0.3 76.52, 1.4 81.35, 6.93 97.64 M-4.02 69.56 C0.28 77.7, 2.62 85.77, 7.43 96.21" stroke="#000000" stroke-width="1" fill="none"></path></g><g transform="translate(666.5 338) rotate(0 4.223097764700697 49.02338038519491)"><path d="M16.99 67.89 C15.15 75.39, 11.84 80.55, 6.93 97.64 M16.45 68.19 C14.69 76.73, 10.96 85.2, 7.43 96.21" stroke="#000000" stroke-width="1" fill="none"></path></g></g><g stroke-linecap="round"><g transform="translate(615.5 471) rotate(0 -18.830225313464098 -0.34886352941396126)"><path d="M-0.31 0.3 C-6.93 0.16, -32.46 -0.9, -38.98 -1 M1.73 -0.59 C-5.03 -0.59, -32.46 -0.23, -39.39 0.01" stroke="#000000" stroke-width="1" fill="none"></path></g><g transform="translate(615.5 471) rotate(0 -18.830225313464098 -0.34886352941396126)"><path d="M-20.26 -5.55 C-29.2 -3.66, -34.76 -0.58, -38.08 -0.57 M-21.02 -6.27 C-26.44 -4.36, -32.92 -2.94, -40.1 0.07" stroke="#000000" stroke-width="1" fill="none"></path></g><g transform="translate(615.5 471) rotate(0 -18.830225313464098 -0.34886352941396126)"><path d="M-19.95 8.13 C-28.98 5.05, -34.65 3.16, -38.08 -0.57 M-20.72 7.4 C-26.3 4.99, -32.88 2.08, -40.1 0.07" stroke="#000000" stroke-width="1" fill="none"></path></g></g><g stroke-linecap="round"><g transform="translate(385.5 471) rotate(0 -18.198184048761618 0.9136634534690415)"><path d="M-0.49 -0.5 C-6.84 -0.25, -31.95 1.8, -37.84 2.07 M1.45 -1.81 C-4.54 -1.4, -29.32 3.02, -35.57 3.64" stroke="#000000" stroke-width="1" fill="none"></path></g><g transform="translate(385.5 471) rotate(0 -18.198184048761618 0.9136634534690415)"><path d="M-20.01 -6.39 C-24.29 -0.65, -31.03 -1.24, -34.91 3.84 M-19.15 -5.34 C-25.54 -0.93, -31.67 1.93, -35.47 2.89" stroke="#000000" stroke-width="1" fill="none"></path></g><g transform="translate(385.5 471) rotate(0 -18.198184048761618 0.9136634534690415)"><path d="M-18.22 6.15 C-23.13 7.9, -30.43 3.32, -34.91 3.84 M-17.36 7.2 C-24.53 6.63, -31.37 4.52, -35.47 2.89" stroke="#000000" stroke-width="1" fill="none"></path></g></g><g stroke-linecap="round"><g transform="translate(239.5 472) rotate(0 -25.71085236587095 -0.4170247472775941)"><path d="M0.14 -0.97 C-8.36 -1.35, -42.11 -2.01, -50.4 -1.97 M-1.25 1.13 C-10 0.84, -43.41 -0.87, -51.56 -0.94" stroke="#000000" stroke-width="1" fill="none"></path></g><g transform="translate(239.5 472) rotate(0 -25.71085236587095 -0.4170247472775941)"><path d="M-29.41 -9.38 C-37.72 -5.26, -44.01 -2.21, -49.66 -0.21 M-28.44 -8.85 C-32.43 -7.14, -37.67 -6.22, -51.03 -1.6" stroke="#000000" stroke-width="1" fill="none"></path></g><g transform="translate(239.5 472) rotate(0 -25.71085236587095 -0.4170247472775941)"><path d="M-29.98 7.72 C-38.14 5.84, -44.22 2.89, -49.66 -0.21 M-29.01 8.24 C-32.99 6.34, -38.11 3.63, -51.03 -1.6" stroke="#000000" stroke-width="1" fill="none"></path></g></g><g transform="translate(340.5 540.5) rotate(0 154.5 17.5)"><text x="0" y="25" font-family="Virgil, Segoe UI Emoji" font-size="28px" fill="#000000" text-anchor="start" style="white-space: pre;" direction="ltr">Bean Post Processors</text></g><g transform="translate(142.5 173.5) rotate(0 152 17.5)"><text x="0" y="25" font-family="Virgil, Segoe UI Emoji" font-size="28px" fill="#000000" text-anchor="start" style="white-space: pre;" direction="ltr">Load Bean Definitions</text></g><g transform="translate(841.5 189.5) rotate(0 75.5 35)"><text x="0" y="25" font-family="Virgil, Segoe UI Emoji" font-size="28px" fill="#000000" text-anchor="start" style="white-space: pre;" direction="ltr">Dependency</text><text x="0" y="60" font-family="Virgil, Segoe UI Emoji" font-size="28px" fill="#000000" text-anchor="start" style="white-space: pre;" direction="ltr">Injection</text></g><g stroke-linecap="round"><g transform="translate(832.5 208) rotate(0 -32.87021469995386 -51.73378146961332)"><path d="M0.06 0.09 C-11 -17.03, -55.07 -86.25, -65.8 -103.56 M-1.37 -0.91 C-12.1 -17.8, -52.95 -85.33, -63.51 -102.31" stroke="#000000" stroke-width="1" fill="none"></path></g><g transform="translate(832.5 208) rotate(0 -32.87021469995386 -51.73378146961332)"><path d="M-39.88 -84.97 C-49 -89.01, -57.48 -97.73, -62.69 -103.26 M-39.8 -84.17 C-45.54 -88.3, -49.64 -90.86, -62.87 -102.38" stroke="#000000" stroke-width="1" fill="none"></path></g><g transform="translate(832.5 208) rotate(0 -32.87021469995386 -51.73378146961332)"><path d="M-57.38 -74.25 C-60.34 -82.03, -62.72 -94.48, -62.69 -103.26 M-57.3 -73.45 C-59.24 -80.07, -59.49 -85, -62.87 -102.38" stroke="#000000" stroke-width="1" fill="none"></path></g></g><g stroke-linecap="round"><g transform="translate(829.5 228) rotate(0 -30.140743333855653 29.59853145421482)"><path d="M-0.36 0.56 C-10.38 10.18, -51 48.4, -60.99 57.9 M1.66 -0.19 C-8.45 9.61, -51.54 49.58, -61.94 59.39" stroke="#000000" stroke-width="1" fill="none"></path></g><g transform="translate(829.5 228) rotate(0 -30.140743333855653 29.59853145421482)"><path d="M-47.42 32.65 C-51.57 39.84, -55.19 46.07, -60.17 61.36 M-48.91 33.52 C-52.12 38.62, -54.94 44.85, -61.34 59.65" stroke="#000000" stroke-width="1" fill="none"></path></g><g transform="translate(829.5 228) rotate(0 -30.140743333855653 29.59853145421482)"><path d="M-33.41 47.64 C-40.77 51.37, -47.58 54.19, -60.17 61.36 M-34.89 48.51 C-41.23 50.46, -47.09 53.45, -61.34 59.65" stroke="#000000" stroke-width="1" fill="none"></path></g></g><g transform="translate(55.5 287.8333435058594) rotate(0 219.5 17.5)"><text x="0" y="25" font-family="Virgil, Segoe UI Emoji" font-size="28px" fill="#000000" text-anchor="start" style="white-space: pre;" direction="ltr">Process @Configuration Classes</text></g><g stroke-linecap="round"><g transform="translate(288.9164637057843 280.3333435058594) rotate(0 -1.7797541514121917 -29.238323818142504)"><path d="M0.21 -0.03 C-0.59 -9.59, -3.22 -47.07, -3.77 -56.9 M-1.14 -1.09 C-1.68 -11.01, -1.17 -48.92, -1.67 -58.45" stroke="#000000" stroke-width="1" fill="none"></path></g><g transform="translate(288.9164637057843 280.3333435058594) rotate(0 -1.7797541514121917 -29.238323818142504)"><path d="M8.64 -33.26 C6.39 -42.61, -1.18 -51.67, -1.32 -57.16 M9.37 -31.07 C6.56 -38.89, 4.44 -45.16, -1.01 -59.01" stroke="#000000" stroke-width="1" fill="none"></path></g><g transform="translate(288.9164637057843 280.3333435058594) rotate(0 -1.7797541514121917 -29.238323818142504)"><path d="M-11.22 -32.95 C-5.77 -42.46, -5.64 -51.63, -1.32 -57.16 M-10.49 -30.76 C-8.36 -38.81, -5.55 -45.15, -1.01 -59.01" stroke="#000000" stroke-width="1" fill="none"></path></g></g></svg>