<svg version="1.1" xmlns="http://www.w3.org/2000/svg" viewBox="0 0 707.5 127" width="707.5" height="127">
  <!-- svg-source:excalidraw -->
  
  <defs>
    <style>
      @font-face {
        font-family: "Virgil";
        src: url("https://excalidraw.com/Virgil.woff2");
      }
      @font-face {
        font-family: "Cascadia";
        src: url("https://excalidraw.com/Cascadia.woff2");
      }
    </style>
  </defs>
  <rect x="0" y="0" width="707.5" height="127" fill="#ffffff"></rect><g stroke-linecap="round" transform="translate(10 11) rotate(0 91.5 53)"><path d="M0 0 C0 0, 0 0, 0 0 M0 0 C0 0, 0 0, 0 0 M-0.88 6.03 C1.66 4.31, 2.81 2.85, 5.22 -0.09 M-0.04 6.49 C1.45 3.87, 3.28 1.71, 4.65 0.76 M0.53 13.11 C4.33 9.58, 6.55 4.25, 10.19 1.42 M0.84 11.28 C3.46 8.2, 7.7 3.32, 10.95 0.48 M0.74 19.73 C5.48 10.2, 13.37 3.41, 13.9 0.82 M0.33 18.12 C5.19 13.33, 9.32 7.44, 15.34 0.19 M0.12 25.25 C9.99 13.13, 15.69 6.73, 20.44 1.01 M1.25 23.56 C8.05 15.99, 14.11 7.34, 21.99 -0.3 M0.07 29.58 C6.64 23.28, 13.34 14.38, 24.62 0.03 M0.54 31.31 C9.02 19.21, 17.07 10.49, 26.72 0.71 M-0.98 35.12 C5.56 30.4, 11.61 20.51, 31.03 -0.3 M-0.11 36.44 C8.65 27.69, 16.83 16.94, 31.9 -0.81 M-0.56 42.41 C16.56 26.76, 27 8.71, 37.56 1.14 M0.5 41.92 C9.15 32.38, 16.83 24.26, 37.84 -0.07 M-1.27 49.52 C10.68 38.02, 17.88 28.65, 41.51 -0.19 M-0.31 49.34 C12.13 34.36, 25.8 18.99, 42.64 -1 M-1.25 55.91 C12.6 41.71, 25.93 24.34, 47.24 0.74 M0 54.01 C17.84 35.1, 36.18 15.26, 47.43 0.19 M1.36 61.56 C10.67 45.1, 22.81 34.04, 52.26 1.57 M0.58 61.5 C21.2 37.36, 41.04 13.19, 52.26 -0.59 M-2.04 66.84 C14.74 54.11, 27.75 36.3, 58.87 -0.26 M0.29 66.73 C11.06 53.72, 22.71 39.64, 57.37 -0.81 M0.35 71.88 C25.88 47.69, 47.73 19.26, 64.3 -0.45 M0.32 72.73 C13.2 58.84, 26.69 43.43, 62.98 -0.96 M-0.33 79.99 C24.2 50.48, 44.34 23.87, 68.32 -0.64 M0.77 79.31 C26.77 48.17, 55.33 16.74, 68.67 -0.03 M-0.15 85.46 C25.49 57.02, 47.93 28.7, 75.37 -1.37 M-0.18 84.21 C29.19 53.17, 57.44 20.64, 75.14 -1.15 M1.23 92.75 C30.97 54.73, 63.12 19.85, 78.19 1.13 M-0.98 91.6 C21.94 68.07, 41.49 43.96, 79.53 0.91 M-1.97 96.33 C19.64 75.75, 40.44 53.98, 83.9 -2 M0.47 97.2 C21.63 72.79, 41.14 48.23, 85.26 0.14 M1.28 104.06 C27.29 75.44, 52.94 42.35, 89.72 -1.1 M-0.58 103.01 C31.12 69.96, 60.8 34.84, 89.3 -0.26 M3.68 106.32 C38.37 63.88, 76.52 22.06, 97 -0.85 M2.79 107.76 C28.6 77.44, 55.78 44.46, 96.02 0.55 M5.77 107.62 C28.46 80.33, 49.65 56.79, 98.89 -1.17 M7.08 107.79 C42.45 67, 76.74 25.72, 100.47 -0.48 M10.91 106.53 C47.52 66.51, 82.87 27.94, 106.45 -2.09 M13.04 108.31 C45.68 71.13, 76.35 34.12, 106.24 0.09 M16.1 106.01 C49.89 68.82, 86.8 30.75, 112.32 -0.62 M18.09 107.05 C40.06 84.05, 60.32 59.07, 110.71 0.68 M22.09 109.01 C54.16 72.88, 88.23 33.13, 116.09 1.14 M22.24 107.19 C52.79 74.47, 82.5 40.21, 116.26 -0.16 M29.07 109.65 C58.24 71.77, 88.6 38.85, 123.34 -0.66 M27.37 107.8 C56.89 75.36, 85.31 43.62, 122.82 0.96 M34.78 108.28 C61.43 80.8, 84.87 51.01, 128.41 -0.22 M33.06 108.28 C63.94 72.13, 96.13 36, 126.52 0.97 M38.11 106.71 C66.76 77.12, 91.08 48.45, 131.96 1.79 M37.92 108.83 C65.38 74.85, 92.85 44.87, 132.77 -0.53 M45.25 107.19 C78 71.01, 111.95 33.65, 136.59 1.34 M45.37 106.82 C82.3 64.23, 118.5 21.06, 137.66 1.25 M49.32 107.69 C80.2 74.3, 107.86 39.51, 144.9 -1.84 M48.94 107.3 C78.45 75.27, 106.33 43.31, 143.7 0.65 M56.46 108.9 C73.12 87.58, 92.99 64.76, 147.19 -1.12 M54.14 107.37 C80.23 79, 104.52 50.26, 149.15 0.06 M61.5 109.42 C77.87 83.1, 98.42 63.06, 155.54 0.15 M59.74 108.69 C85.41 77.72, 110.98 48.6, 153.87 0.3 M66.04 108.87 C88.02 80.67, 113.52 56.75, 159.44 -0.22 M65.55 107.84 C86.15 83.84, 107.95 59.36, 158.59 1.11 M70.13 107.01 C98.82 74.46, 124.39 43.6, 163.95 -0.19 M69.81 106.84 C89 85.28, 107.69 63.72, 164.74 -0.46 M74.33 106.88 C103.98 72, 134.64 38.24, 169.27 1.72 M76.91 107.5 C103.56 76.21, 131.88 43.67, 169.75 0.45 M79.38 105.91 C116.09 67.27, 149.91 27.88, 176.9 1.47 M80.78 107.93 C107.88 75.69, 136.25 43.98, 174.89 -1.15 M88.33 107.04 C114.19 74.63, 140.82 41.47, 181.27 0.7 M86.68 106.94 C109.38 80.35, 133.06 52.75, 180.55 0.47 M90.12 105.87 C126.29 66.78, 163.07 27.09, 182.53 -0.7 M92.47 108.49 C129.76 64.99, 165.69 22.08, 184.76 1.57 M97.75 105.75 C120.47 84.01, 141.68 57.84, 182.19 6.59 M98.49 108.11 C129.88 71.36, 160.02 35.47, 184.5 7.47 M103.88 108.95 C135.62 69.35, 167.71 32.14, 185.11 11.33 M102.82 107.37 C135.03 70.27, 167.3 32.05, 185.38 13.9 M106.98 107.72 C128.62 85.62, 144.46 66.51, 184.64 20.99 M109.12 106.29 C128.28 83.11, 146.3 61.97, 184.47 19.51 M114.91 107.52 C142.76 75.52, 169.45 44.89, 184.65 24.27 M113.93 107.8 C128.09 90.46, 143.57 72.47, 184.01 25.79 M118.44 106.76 C132.99 90.2, 143.33 75.93, 183.21 30.31 M117.85 108.88 C136.92 84.99, 159.18 61.71, 184.78 31.5 M122.12 108.27 C138.58 93.14, 152.61 77.17, 186.01 36.48 M124.09 107.32 C148.89 80.1, 172.74 51.45, 183.21 37.85 M127.2 106.68 C143.88 89.76, 156.71 73.34, 185.28 43.81 M129.1 108.34 C151.4 81.56, 173.93 56.98, 183.99 43.2 M133.11 108.21 C150.37 87.32, 167.12 72.19, 182.7 48.35 M133.7 107.83 C150.2 88.68, 167.59 70.52, 184.66 49.76 M141.07 109.9 C155.05 90.25, 167.58 76.78, 182.88 57.04 M138.45 108.75 C156.11 88.56, 171.46 70.06, 184.79 56.74 M144.19 106.65 C151.95 98.96, 162.9 87.36, 184.96 62.85 M145.36 107.57 C154.35 96.2, 163.75 85.66, 185.24 62.82 M151.17 106.4 C160.27 94.33, 175.75 79.75, 184.09 68.64 M149.31 108.76 C162.24 92.97, 174.93 80.32, 183.38 69.33 M156.35 109.22 C165.96 95.98, 171.61 87.12, 186.36 74.53 M155.78 107.14 C166.91 94.62, 176.97 83.18, 183.64 74.91 M159.35 106.46 C168.62 100.93, 173.47 90.39, 183.65 81.29 M160.24 108.39 C167.04 100.17, 173.99 92.92, 184.11 80.26 M167.24 107.85 C171.82 99.35, 180.9 90.48, 183.16 86.21 M165.87 107.45 C169.72 102.17, 175.47 97.19, 183.7 87.25 M170.11 108.66 C173.25 105.45, 175.96 102.31, 183.01 94.24 M170.97 106.99 C176.67 102.57, 182.21 95.89, 183.48 93.43 M175.99 108.17 C178.04 105.59, 180.31 104.32, 184.98 98.41 M176.79 107.62 C179.12 104.83, 181.97 101.35, 183.94 99.15" stroke="#15aabf" stroke-width="0.5" fill="none"></path><path d="M-1.57 1.75 C38.02 -1.67, 77.73 -1.63, 182.2 0.14 M-0.07 0.49 C38.11 2.46, 75.25 2.07, 183.51 -0.48 M181.52 -0.46 C184.5 39.2, 184.45 73.94, 181.54 106.9 M182.51 -0.62 C183.24 22.42, 182.68 46.72, 183.1 105.01 M182.15 104.89 C111.62 103.43, 40.32 104.24, 1.41 107.5 M182.9 105.33 C139.76 105.77, 98.9 106.34, -0.21 105.59 M-1.71 105.42 C1.25 64.77, 1.33 22.66, 0.16 -1.11 M-0.67 105.15 C-1.21 68.17, -1.28 29.68, 0.37 0.15" stroke="#000000" stroke-width="1" fill="none"></path></g><g transform="translate(14 47.5) rotate(0 87 17.5)"><text x="87" y="25" font-family="Virgil, Segoe UI Emoji" font-size="28px" fill="#000000" text-anchor="middle" style="white-space: pre;" direction="ltr">Initialization</text></g><g stroke-linecap="round" transform="translate(262.5 11) rotate(0 91.5 53)"><path d="M0 0 C0 0, 0 0, 0 0 M0 0 C0 0, 0 0, 0 0 M0.52 6.04 C1.65 5.78, 1.68 3.96, 5.44 0.79 M-0.46 6.04 C1.33 4.08, 3.23 2.24, 4.63 0.26 M-0.74 12.62 C3.8 5.61, 8.75 4.04, 11.5 -1.04 M-0.06 11.42 C2.24 9.28, 5.8 4.81, 10.71 -0.48 M0.74 18.96 C5.5 9.69, 9.78 2.94, 15.98 -0.21 M0.28 17.64 C2.27 15.21, 6.89 11.69, 15.51 0.62 M-0.86 23.64 C7.37 17.32, 15.79 6.44, 23.04 -0.24 M0.21 23.98 C5.6 17.87, 12.24 11, 21.05 0.14 M0.73 31.44 C8.19 21.45, 17.3 9.17, 25.33 -1.36 M0.43 31.21 C7.21 21.83, 15.73 10.81, 26.85 0.95 M-0.14 35.67 C8.96 26.86, 14.95 19.16, 29.89 0.21 M-0.31 37.01 C13.13 21.49, 24.21 7.79, 31.03 -0.86 M1.89 41.38 C7.96 30.21, 19.22 20.37, 38.31 -1.02 M-0.8 42.74 C14.34 27.18, 28.07 11.96, 37.45 0.55 M-1.63 48.61 C15.22 29.58, 32.01 9.11, 41.06 -1.07 M-0.9 48.19 C15.13 31.4, 31.05 12.88, 43.43 -0.79 M0.75 55.89 C12.02 40.4, 25.8 24.65, 49.37 0.52 M-0.52 54.91 C14.21 38.73, 27.19 24.97, 46.97 0.05 M0.22 59.19 C15.68 43.84, 35.27 22.1, 53.63 -0.55 M-0.41 60.78 C20.09 38.63, 41.89 14.02, 52.36 -0.69 M1.49 67.51 C17 46.3, 35.78 25.36, 59.25 1.64 M-1.15 67.3 C23.32 41.04, 46.21 13.74, 57.45 -0.77 M1.9 74.03 C12.79 55.78, 25.22 40.7, 65.02 -1.98 M-0.68 72.42 C23.75 47.31, 46.4 20.23, 63.27 0.53 M-1.4 79.22 C19.25 56.98, 37.08 33.07, 67.01 -0.56 M0.18 79.38 C17.18 59, 35.96 37.79, 69.25 1.02 M2.23 86.46 C19.68 62.76, 39.76 39.2, 72.94 -0.45 M0.77 85.94 C25.96 56.34, 48.5 28.41, 74.93 0.15 M0.87 92.94 C29.26 56.78, 61.24 20, 78.03 1.67 M-0.26 91.05 C20.29 68.23, 39.72 45.03, 79.09 -0.46 M1.68 97.25 C33.7 61.4, 63.65 26.87, 83.43 1.65 M0.12 98.06 C21.02 74.51, 42.05 50.67, 85.48 -0.42 M2.1 102.53 C30.02 70.41, 58.01 35.08, 92.01 -1.23 M-0.23 103.61 C31.06 69.83, 60.35 36.01, 90.01 0.01 M2.96 109.34 C33.51 68.62, 68.94 29.06, 94.82 -1.39 M1.83 108.13 C37.8 66.07, 71.25 26.77, 96.4 0.42 M6.93 107 C27 81.7, 50.65 55, 98.93 -0.09 M6.44 108.96 C36.92 73.34, 67.4 39.26, 101.41 0.86 M13.74 109.31 C33.16 85.64, 53.16 64.15, 105.79 1.43 M13.33 107.64 C40.08 76.31, 66.6 45.42, 106.51 0.39 M19.16 108.58 C42.3 76.9, 67.75 48.49, 111.12 0.89 M18.08 107.74 C38.1 84.88, 58.34 61.78, 111.04 -0.36 M21.53 107.05 C61.15 62.88, 99.7 23.64, 114.64 -1.48 M23.95 107.84 C50.19 76.46, 78.93 45.13, 115.31 0.13 M29.57 107.74 C48.95 86.31, 68.2 62.24, 123.2 0.24 M29.03 108.23 C51.7 81.17, 76.42 52.96, 120.98 -0.93 M32.74 109.34 C70.8 66.72, 104.38 26.84, 125.97 0.74 M33.91 107.33 C52.07 85.68, 72.82 63.24, 127.62 0.19 M37.18 109.09 C66.93 76.27, 95.27 47.61, 132.11 -0.85 M38.92 108.36 C65.24 77.42, 92.89 44.7, 131.67 -0.97 M44.03 105.62 C71.63 75.73, 101.34 40.8, 138.71 1.89 M43.77 107.85 C77.07 70.42, 108.76 34.74, 137.65 -0.47 M49.34 105.9 C82.67 67.66, 118.38 23.92, 145.1 1.52 M48.74 108.21 C84.56 69.39, 118.6 29.15, 143.86 0.55 M54.41 108.03 C81.19 77.55, 112.79 42.58, 148.77 -0.31 M54.41 108.3 C89.04 68.43, 121.17 30.03, 147.58 0.5 M61.71 108.18 C95.54 68.68, 129.12 32.12, 155.73 -2.07 M60.8 108.01 C95.88 68.96, 130.44 27.49, 154.69 -0.18 M65.2 107.41 C101.21 63.5, 136.99 21.94, 160.38 0.58 M65.08 106.77 C85.25 85.35, 104.34 64.59, 158.95 -0.38 M70.26 106.59 C105.48 68.18, 143.62 26.53, 163.88 1.63 M70.76 108.16 C89.16 84.37, 107.54 62.58, 163.61 0.18 M76.02 109.25 C106.69 71.35, 138.7 33.53, 170.06 -0.35 M75.37 106.45 C108.94 68.01, 143.51 30.82, 168.65 -0.43 M79.27 108.49 C118.25 67.92, 154.32 26.23, 175.74 0.59 M81.64 107.19 C114.27 69, 147.66 30.98, 174.42 0.14 M88.81 105.78 C112.19 77.52, 139.44 44.85, 178.66 0.71 M87.21 107.73 C106.51 84.88, 127.07 61.98, 180.89 1.16 M93.34 105.92 C129.57 67.74, 164.33 27.26, 182.5 2.94 M91.78 107.83 C125.88 69.32, 157.6 32.1, 183.97 0.85 M95.82 107.86 C118.35 81.79, 137.1 57.57, 184.78 7.78 M96.86 108.15 C122.22 81.32, 144.47 53.67, 184.7 6.94 M101.37 107.62 C120.21 87.69, 139.72 66.36, 183.09 15.08 M102.88 106.91 C132.42 74.26, 160.4 40.92, 184.86 14.19 M107.61 109.1 C138.44 75.61, 168.4 41.02, 184.5 19.02 M108.95 106.38 C135.85 76.76, 162.93 44.75, 183.61 19.02 M112.58 107.01 C137.36 80.17, 162.15 54.6, 183.83 26.44 M113.98 107.47 C132.49 85.19, 152.28 61.41, 185.13 25.56 M116.41 106.49 C133.92 88.2, 148.77 71.51, 183.55 31.75 M117.78 107.03 C132.68 91.34, 144.37 77.52, 183.81 32.18 M124.51 106.2 C140.63 91.48, 153.33 73.64, 183.5 36.5 M123.46 106.67 C143.91 83.75, 163.27 61.43, 183.28 38.84 M130.71 109.49 C140.6 93.51, 156.5 78.95, 184.03 44.53 M127.96 107.59 C143.49 89.58, 158.53 72.98, 184.9 43.87 M134.99 107.98 C149.01 88.15, 163.94 70.27, 185.17 49.13 M135.04 107.84 C148.19 91.7, 162.19 75.78, 184.17 50.81 M139.36 108.49 C155.7 87.4, 170.41 69.96, 184.34 56.59 M138.49 106.96 C153.36 91.5, 167.13 73.29, 183.83 55.7 M146.2 107.84 C157.8 94.59, 165.81 81.89, 184.23 61.16 M145.8 108.47 C157.78 93.01, 170.68 77.88, 184.99 61.66 M150.17 107.81 C161.51 95.28, 171.53 80.81, 182.54 68.6 M149.36 108.47 C158.4 98.08, 167.31 89.25, 184.22 68.18 M156.59 105.95 C167.23 97.75, 176.05 84.72, 183.08 75.35 M156.15 108.2 C164.49 97.57, 173.33 88.34, 183.97 73.97 M161.28 106.48 C168.28 96.29, 180.52 86.03, 182.98 79.66 M160.91 108.59 C166.72 102.05, 172.2 95.41, 185.04 79.74 M164.95 107.16 C171.96 100.74, 180.9 90.79, 186.39 85.16 M165.84 106.82 C170.92 102.31, 174.15 98.47, 185.64 85.51 M173.11 106.19 C175.17 102.25, 179.61 98.72, 184.34 91.82 M171.81 106.92 C173.44 104.76, 178.12 100.71, 184.59 93.2 M177.72 108.31 C178.33 105.24, 179.4 104.22, 184.34 99.32 M176.41 107.9 C179.5 104.76, 182.03 101.44, 184.21 99.56" stroke="#15aabf" stroke-width="0.5" fill="none"></path><path d="M-1.46 -1.63 C59.77 -0.1, 119.63 -0.51, 184.06 1.66 M0.67 0.47 C55.26 0.85, 110.38 1.08, 182.64 -0.88 M182.67 -0.86 C183.57 25.98, 185.63 51.61, 183.29 105.12 M182.5 0.01 C182.72 39.89, 182.56 78.57, 182.65 105.95 M181.83 106.68 C111.14 102.97, 38.97 103.27, 0.73 104.8 M183.72 106.97 C109.92 105.67, 37.77 105.68, -0.57 106.3 M0.09 104.99 C0.43 63.92, -1.19 22.83, -0.38 0.84 M-0.53 106.12 C-1.12 82.9, -0.18 61.46, -0.76 0.67" stroke="#000000" stroke-width="1" fill="none"></path></g><g transform="translate(327.5 46.5) rotate(0 25.5 17.5)"><text x="25.5" y="25" font-family="Virgil, Segoe UI Emoji" font-size="28px" fill="#000000" text-anchor="middle" style="white-space: pre;" direction="ltr">Use</text></g><g stroke-linecap="round" transform="translate(514.5 10) rotate(0 91.5 53)"><path d="M0 0 C0 0, 0 0, 0 0 M0 0 C0 0, 0 0, 0 0 M-0.03 6.94 C1 3.43, 3.04 1.86, 4.67 1.12 M-0.3 6.25 C1.32 4.95, 2.83 2.74, 4.91 0.5 M0.47 12.96 C4.63 6.31, 8.96 3.37, 9.73 1.24 M-0.53 12.17 C2.99 9.51, 5.29 7.11, 9.9 0.73 M1.18 17.42 C2.56 13.92, 7.4 8.72, 16.63 -0.51 M0.03 19.41 C4.22 14.1, 7.62 9.68, 16.41 -0.36 M-1.24 23.38 C5.46 19.56, 10.78 12.97, 19.53 -1.12 M-0.37 24.76 C5.67 16.02, 11.47 10.14, 21.67 -0.19 M0.58 32.44 C11.35 21.13, 17.52 8.08, 25.07 0.87 M-0.46 31.18 C6.46 24.49, 11.42 15.98, 25.9 1.25 M-1.55 36.03 C8.11 26.34, 18.05 17.16, 31.35 -0.24 M-0.11 36.71 C12.04 23.02, 22.07 10.74, 32.75 -0.76 M-0.22 42.71 C10.97 27.49, 25.42 11.64, 35.66 1.89 M-0.05 43.36 C14.63 24.98, 29.13 8.72, 36.35 1.04 M-1.17 49.36 C15.98 30.57, 34.75 11.5, 40.77 0.53 M0.6 49.9 C8.69 38.72, 16.63 27.93, 42.96 0.52 M-1.65 52.78 C15.15 39.02, 31.04 22.48, 46.87 -1.28 M-0.62 55.15 C10.75 42.16, 20.36 29.99, 48.17 0.65 M1.48 60.56 C20.32 41.85, 35.67 18.81, 53.91 0.2 M-0.35 60.6 C14.97 44.87, 28.94 28.94, 52.61 0.12 M1.49 66.69 C17 45.34, 37.46 27.36, 57.49 0.22 M-0.36 67.65 C16.19 49.18, 33.53 30.69, 59.12 -0.13 M0.92 74.73 C15.54 57.45, 27.88 43.38, 63.22 0.48 M0.92 72.48 C22.01 49.22, 43.21 23.53, 64.41 -0.34 M-1.28 80.88 C23.24 51.77, 48.77 25.62, 70.62 -0.06 M0.84 78.85 C18.5 56.41, 40.01 33.54, 68.29 0.66 M-0.01 85.66 C21.27 63.81, 41.29 38.16, 75.45 1.75 M-0.38 85.37 C19.52 61.03, 38.81 39.25, 75.36 -0.06 M-0.13 92.74 C26.94 60.54, 52.59 33.13, 77.65 0.1 M-0.52 92.15 C21.26 67.54, 43.11 42.77, 80.14 -0.88 M1.21 96.59 C21.7 73.82, 40.66 49.56, 83.65 -0.9 M-0.32 98.01 C25.5 68.85, 50.9 41.21, 84.83 -1.12 M1.77 101.6 C29.79 65.56, 64.04 33.2, 90.31 -0.36 M1.04 103.38 C31.27 67.17, 63.37 31.85, 90.45 -0.47 M3.32 106.93 C27.4 79.5, 55.75 48.23, 95.21 -1.72 M2.29 106.78 C31.36 74.61, 59.87 42.15, 96.54 -0.42 M6.09 109.92 C40.67 67.24, 76.98 25.05, 100.62 -1.85 M5.92 107.95 C41.47 67.78, 77.14 28.23, 100.36 0.31 M12 105.73 C47.12 66.45, 83.48 27.36, 107.81 -0.25 M12.61 107.16 C48.24 67.21, 82.5 28.78, 106.54 0.3 M15.65 109.43 C51.42 69.52, 86.49 29.73, 112.95 -0.07 M17.67 107 C47.03 73.91, 76.93 39.88, 110.33 0.03 M22.82 107.36 C55.89 67.13, 88.16 31.84, 116.81 -0.59 M22.72 107.43 C58.3 67.22, 93 26.97, 116.58 1.18 M26.27 108.05 C64.09 68.69, 101.2 23.33, 119.94 1.97 M28.89 108.36 C51.87 79.21, 75.44 52.58, 122.2 -0.57 M32.19 109.05 C60.54 79.19, 84.61 45.94, 125.81 1.57 M34.55 108.2 C58.48 77.98, 83.08 50.65, 126.69 1.29 M40.01 107.85 C58.19 83.15, 78.87 60.29, 130.55 1.94 M38.44 108.45 C75.59 65.76, 111.5 24.64, 133.12 -0.6 M44.83 108.71 C66.14 81.38, 90.28 58.26, 138.8 -0.5 M43.4 108.23 C74.8 68.65, 108.5 32.91, 137.33 1.1 M49.25 109.59 C68.13 85.73, 88.35 61.81, 142.09 -1.81 M49.53 106.87 C71.45 81.77, 92.4 57.38, 143.6 -1.02 M53.77 108.96 C85.7 67.74, 119.98 30.75, 146.71 0.4 M55.9 106.45 C90.03 69.01, 124.58 28.79, 147.9 -0.52 M60.67 108.74 C82.33 86.01, 102.75 62.07, 152.13 1.78 M59.72 108.38 C78.5 86.39, 96.14 63.2, 153.5 -0.61 M64.36 109.1 C99.8 66.56, 136.08 24.74, 158.8 2.17 M66.02 107.94 C92.16 75.91, 120.93 42.31, 158.19 0.47 M71.28 107.42 C93.94 79.66, 122.56 48.88, 162.59 0.43 M70.89 106.87 C94.89 81.19, 119.35 54.23, 164 -0.02 M78.25 109.1 C107.94 68.84, 143.68 29.2, 170.62 1.37 M77.09 107.92 C103.95 74.63, 133.06 41.82, 170.32 -0.74 M80.38 106.47 C108.58 79.46, 132.58 48.2, 175.68 -1.43 M81.3 107.41 C104.11 80.96, 127.1 55.92, 175.65 0.27 M85.41 105.64 C111.74 80.64, 135.19 50.48, 180.06 1.29 M87.77 107.79 C122.69 66.71, 160.77 22.66, 180.74 0.18 M93.61 109.4 C121.69 70.66, 153.6 38.47, 184.63 2.81 M91.53 108.22 C123.18 70.6, 156.15 33.28, 185.01 1.43 M96.13 108.07 C133.42 67.5, 164.94 30.17, 184.73 7.4 M98.06 107.11 C128.03 71.8, 159.72 35.78, 183.7 8.3 M102.9 106.41 C121.14 86.6, 138.91 62.06, 184.41 12.01 M102.51 106.68 C122.72 84.81, 143.26 59.72, 185.44 12.36 M109 106.44 C125.53 87.25, 142.57 66.97, 185.78 21.34 M107.33 107.56 C125.5 88.22, 142.07 66.34, 184.97 19.23 M114.51 106.39 C136.44 81.54, 160.78 57.17, 183.36 26.09 M113.51 107.31 C139.22 78.11, 164.16 47.14, 184.7 24.48 M118.27 108.25 C140.74 82.49, 159.97 60.93, 183.94 29.9 M117.59 107.77 C134.36 89.98, 151.73 70.84, 183.97 32.28 M124.99 108.92 C141.49 89.8, 156.19 70.45, 184.29 36.96 M124.14 107.81 C137.51 93.2, 148.52 77.05, 184.04 38.67 M128.47 107.39 C139.94 94.53, 153.94 81.79, 186.34 43.1 M128.22 108.24 C143.87 92.16, 158.4 76.13, 184.55 44.4 M133.23 108.27 C149.09 91.39, 164.14 72.92, 184.3 50.98 M134.38 107.02 C145.5 93.75, 156.86 82.13, 184.03 49.73 M138.48 108.74 C154.28 92.32, 169.78 72.22, 186.42 57.64 M139.92 107.91 C154.66 90.33, 170.34 73.88, 184.88 55.73 M144.41 109.39 C158.91 92.92, 172.51 75.19, 182.83 61.45 M144.52 106.94 C159.13 90.44, 174.44 75.08, 184.61 62.87 M148.14 109.09 C160.86 97.33, 168.87 83.85, 183.27 69.67 M149.44 107.09 C163.52 93.8, 175.25 77.71, 184.83 68.3 M154.03 107.9 C164.72 98.37, 173.95 86.47, 184.28 73.61 M155.21 106.73 C164.13 98.19, 173.37 86.73, 183.74 74.69 M161.61 105.92 C171.85 96.49, 180.87 87.91, 184.28 79.75 M160.83 108.27 C167.66 100.77, 172.19 94.28, 184.58 81.03 M167.91 106.16 C171.43 99.19, 177.48 92.52, 185.37 85.36 M165.44 106.69 C169.04 103.01, 172.9 99.12, 184.69 85.96 M171.37 109.41 C174.12 101.04, 180.6 96.37, 185.16 93.4 M171.52 108.1 C175.69 103.58, 179.49 97.17, 184.68 92.29 M177.61 108.38 C178.94 104.26, 180.53 103.86, 183.23 99.65 M176.72 107.91 C179.93 103.71, 182.19 101.45, 183.76 98.7" stroke="#15aabf" stroke-width="0.5" fill="none"></path><path d="M0.61 1.93 C59.2 1.17, 120.3 0.04, 182.95 -0.04 M0.42 -0.86 C39.85 0.47, 78.69 0.47, 182.14 -0.38 M184.35 0 C185.73 33.59, 182.58 64.96, 183.51 107.36 M182.45 -0.22 C182.21 24.5, 182.36 47.46, 182.97 105.35 M183.6 104.48 C117.87 105.38, 57.36 106.34, 1.74 107.71 M183.54 106.36 C138.58 106.76, 93.45 106.16, -0.41 105.24 M-0.52 107.86 C1.95 76.6, -0.79 44.39, -0.45 -1.99 M-0.63 105.81 C-0.66 70.89, -1.29 35.46, -1 0.76" stroke="#000000" stroke-width="1" fill="none"></path></g><g transform="translate(525.5 45.5) rotate(0 80.5 17.5)"><text x="80.5" y="25" font-family="Virgil, Segoe UI Emoji" font-size="28px" fill="#000000" text-anchor="middle" style="white-space: pre;" direction="ltr">Destruction</text></g><g stroke-linecap="round"><g transform="translate(197 68) rotate(0 28.675015547345424 -1.2504320137202853)"><path d="M1.17 0.57 C10.87 0.02, 47.7 -2.63, 57.03 -3.07 M0.32 -0.18 C9.97 -0.54, 46.74 -0.95, 56.1 -1.57" stroke="#000000" stroke-width="1" fill="none"></path></g><g transform="translate(197 68) rotate(0 28.675015547345424 -1.2504320137202853)"><path d="M30.58 9.18 C34.81 7, 41.8 3.21, 54.31 -0.97 M30.06 9.32 C36.25 6.37, 40.17 4.12, 56 -1.41" stroke="#000000" stroke-width="1" fill="none"></path></g><g transform="translate(197 68) rotate(0 28.675015547345424 -1.2504320137202853)"><path d="M29.9 -10.33 C34.29 -8.61, 41.42 -8.49, 54.31 -0.97 M29.38 -10.19 C35.57 -8.97, 39.63 -7.04, 56 -1.41" stroke="#000000" stroke-width="1" fill="none"></path></g></g><g stroke-linecap="round"><g transform="translate(457 61) rotate(0 25.680146529106423 -1.010253581046129)"><path d="M0.18 0.86 C8.66 0.68, 41.89 -0.53, 50.23 -1.19 M-1.18 0.27 C7.74 -0.23, 43.56 -2.45, 52.54 -2.88" stroke="#000000" stroke-width="1" fill="none"></path></g><g transform="translate(457 61) rotate(0 25.680146529106423 -1.010253581046129)"><path d="M30.52 5.89 C36.25 3.35, 38.9 0.28, 52.98 -2.06 M29.65 7.46 C36.75 5.17, 43.39 0.59, 52.39 -3.47" stroke="#000000" stroke-width="1" fill="none"></path></g><g transform="translate(457 61) rotate(0 25.680146529106423 -1.010253581046129)"><path d="M29.55 -11.54 C35.5 -9.77, 38.39 -8.52, 52.98 -2.06 M28.68 -9.97 C36.16 -7.25, 43.09 -6.82, 52.39 -3.47" stroke="#000000" stroke-width="1" fill="none"></path></g></g></svg>